<svg width="24" height="24" viewBox="0 0 24 24" fill="none" xmlns="http://www.w3.org/2000/svg">
<path d="M19.497 7.9888L12 15.2968L4.50299 7.9888C4.36905 7.85796 4.18924 7.7847 4.00199 7.7847C3.81475 7.7847 3.63493 7.85796 3.50099 7.9888C3.43614 8.05235 3.38461 8.1282 3.34944 8.21191C3.31426 8.29561 3.29614 8.3855 3.29614 8.4763C3.29614 8.5671 3.31426 8.65699 3.34944 8.7407C3.38461 8.82441 3.43614 8.90025 3.50099 8.9638L11.4765 16.7398C11.6166 16.8763 11.8044 16.9527 12 16.9527C12.1956 16.9527 12.3834 16.8763 12.5235 16.7398L20.499 8.9653C20.5643 8.90171 20.6162 8.82567 20.6517 8.74169C20.6871 8.6577 20.7054 8.56746 20.7054 8.4763C20.7054 8.38514 20.6871 8.2949 20.6517 8.21092C20.6162 8.12693 20.5643 8.05089 20.499 7.9873C20.3651 7.85646 20.1852 7.7832 19.998 7.7832C19.8107 7.7832 19.6309 7.85646 19.497 7.9873V7.9888Z" fill="#1E1E1E"/>
</svg>
