<svg width="24" height="24" viewBox="0 0 24 24" fill="none" xmlns="http://www.w3.org/2000/svg">
<path d="M4.39658 16.264L11.4241 9.34747C11.5774 9.19578 11.7844 9.11069 12.0001 9.11069C12.2158 9.11069 12.4227 9.19578 12.5761 9.34747L19.6036 16.2625C19.7579 16.4141 19.9655 16.499 20.1818 16.499C20.3981 16.499 20.6058 16.4141 20.7601 16.2625C20.8361 16.1884 20.8964 16.0999 20.9377 16.0021C20.9789 15.9043 21.0001 15.7993 21.0001 15.6932C21.0001 15.5871 20.9789 15.4821 20.9377 15.3843C20.8964 15.2866 20.8361 15.198 20.7601 15.124L13.7341 8.20897C13.2713 7.75458 12.6486 7.5 12.0001 7.5C11.3515 7.5 10.7289 7.75458 10.2661 8.20897L3.24008 15.124C3.16388 15.1981 3.1033 15.2867 3.06194 15.3846C3.02058 15.4825 2.99927 15.5877 2.99927 15.694C2.99927 15.8003 3.02058 15.9055 3.06194 16.0034C3.1033 16.1013 3.16388 16.1899 3.24008 16.264C3.39436 16.4156 3.60202 16.5005 3.81833 16.5005C4.03464 16.5005 4.2423 16.4156 4.39658 16.264Z" fill="#1E1E1E"/>
</svg>
