<svg width="14" height="14" viewBox="0 0 14 14" fill="none" xmlns="http://www.w3.org/2000/svg">
<g clip-path="url(#clip0_222_5491)">
<path fill-rule="evenodd" clip-rule="evenodd" d="M9.31564 1.44064C9.4865 1.26979 9.7635 1.26979 9.93436 1.44064L12.5594 4.06564C12.6414 4.14769 12.6875 4.25897 12.6875 4.375C12.6875 4.49103 12.6414 4.60231 12.5594 4.68436L9.93436 7.30936C9.7635 7.48021 9.4865 7.48021 9.31564 7.30936C9.14479 7.1385 9.14479 6.8615 9.31564 6.69064L11.1938 4.8125L4.375 4.8125C4.13338 4.8125 3.9375 4.61662 3.9375 4.375C3.9375 4.13337 4.13338 3.9375 4.375 3.9375L11.1938 3.9375L9.31564 2.05936C9.14479 1.8885 9.14479 1.6115 9.31564 1.44064ZM4.68436 6.69064C4.85521 6.8615 4.85521 7.1385 4.68436 7.30936L2.80622 9.1875H9.625C9.86662 9.1875 10.0625 9.38338 10.0625 9.625C10.0625 9.86662 9.86662 10.0625 9.625 10.0625H2.80622L4.68436 11.9406C4.85521 12.1115 4.85521 12.3885 4.68436 12.5594C4.51351 12.7302 4.2365 12.7302 4.06564 12.5594L1.44064 9.93436C1.26979 9.7635 1.26979 9.4865 1.44064 9.31564L4.06564 6.69064C4.23649 6.51979 4.5135 6.51979 4.68436 6.69064Z" fill="white"/>
</g>
<defs>
<clipPath id="clip0_222_5491">
<rect width="14" height="14" fill="white"/>
</clipPath>
</defs>
</svg>
