<svg width="24" height="24" viewBox="0 0 24 24" fill="none" xmlns="http://www.w3.org/2000/svg">
<path fill-rule="evenodd" clip-rule="evenodd" d="M2.28516 4.95511C0.796345 7.00234 -0.00382963 9.46949 1.3781e-05 12.0008C-0.00382963 14.5322 0.796345 16.9993 2.28516 19.0465C3.40998 18.2897 4.31812 17.2528 4.92001 16.038C5.54899 14.7855 5.87378 13.4024 5.86801 12.0008C5.87122 10.5996 5.54657 9.21704 4.92001 7.96369C4.31812 6.74889 3.40998 5.71194 2.28516 4.95511ZM3.70116 3.33169C5.0294 4.27817 6.10441 5.53687 6.83144 6.99683C7.60801 8.53111 8.01087 10.254 8.01087 12.0008C8.01342 13.7385 7.60952 15.4528 6.83144 17.0065C6.10418 18.4659 5.02918 19.724 3.70116 20.67C5.66657 22.5548 8.21608 23.7128 10.9286 23.9528V0.0488281C8.1343 0.295685 5.6143 1.50083 3.70116 3.33169ZM13.0714 23.9545C15.7842 23.7141 18.3337 22.5554 20.2989 20.67C18.9706 19.7235 17.8956 18.4648 17.1686 17.0048C16.3908 15.4516 15.9869 13.738 15.9892 12.0008C15.9892 10.2523 16.392 8.53111 17.1686 6.99511C17.8954 5.53597 18.9698 4.2779 20.2972 3.33169C18.3326 1.44759 15.7845 0.2896 13.0732 0.0488281V23.9528L13.0714 23.9545ZM24 12.0008C24.0039 14.5322 23.2037 16.9993 21.7149 19.0465C20.59 18.2897 19.6819 17.2528 19.08 16.038C18.451 14.7855 18.1263 13.4024 18.132 12.0008C18.132 10.5814 18.4594 9.1894 19.08 7.96369C19.6819 6.74889 20.59 5.71194 21.7149 4.95511C23.2037 7.00234 24.0039 9.46949 24 12.0008Z" fill="#1E1E1E"/>
</svg>
