<svg width="15" height="15" viewBox="0 0 15 15" fill="none" xmlns="http://www.w3.org/2000/svg">
<g clip-path="url(#clip0_192_1698)">
<path fill-rule="evenodd" clip-rule="evenodd" d="M4.125 2.43945C4.125 1.19681 5.13236 0.189453 6.375 0.189453H8.625C9.86764 0.189453 10.875 1.19681 10.875 2.43945V2.59319C11.5743 2.65721 12.268 2.74093 12.9555 2.84379C14.0461 3.00696 14.8125 3.95568 14.8125 5.03122V7.30612C14.8125 8.21448 14.2623 9.07039 13.3603 9.37027C11.5174 9.98295 9.54688 10.3145 7.50003 10.3145C5.45315 10.3145 3.48257 9.98294 1.6397 9.37025C0.73773 9.07037 0.1875 8.21446 0.1875 7.3061V5.03122C0.1875 3.95568 0.953931 3.00697 2.04447 2.84379C2.73195 2.74093 3.42565 2.65721 4.125 2.59319V2.43945ZM9.75 2.43945V2.50757C9.00574 2.46238 8.25552 2.43945 7.50001 2.43945C6.74449 2.43945 5.99427 2.46238 5.25 2.50757V2.43945C5.25 1.81813 5.75368 1.31445 6.375 1.31445H8.625C9.24632 1.31445 9.75 1.81813 9.75 2.43945ZM7.5 8.62695C7.81066 8.62695 8.0625 8.37511 8.0625 8.06445C8.0625 7.75379 7.81066 7.50195 7.5 7.50195C7.18934 7.50195 6.9375 7.75379 6.9375 8.06445C6.9375 8.37511 7.18934 8.62695 7.5 8.62695Z" fill="#FF6E2D"/>
<path d="M0.75 12.3019V10.2049C0.917278 10.2966 1.09573 10.3749 1.28478 10.4378C3.24065 11.0881 5.33101 11.4395 7.50003 11.4395C9.66903 11.4395 11.7594 11.0881 13.7152 10.4378C13.9043 10.375 14.0827 10.2967 14.25 10.2049V12.3019C14.25 13.3909 13.4646 14.3476 12.3576 14.4945C10.7682 14.7056 9.14665 14.8145 7.5 14.8145C5.85335 14.8145 4.23185 14.7056 2.64235 14.4945C1.53543 14.3476 0.75 13.3909 0.75 12.3019Z" fill="#FF6E2D"/>
</g>
<defs>
<clipPath id="clip0_192_1698">
<rect width="15" height="15" fill="white"/>
</clipPath>
</defs>
</svg>
