<svg width="12" height="10" viewBox="0 0 12 10" fill="none" xmlns="http://www.w3.org/2000/svg">
<g clip-path="url(#clip0_74_429)">
<path d="M4.3125 3.875C4.3125 3.97855 4.22855 4.0625 4.125 4.0625C4.02145 4.0625 3.9375 3.97855 3.9375 3.875C3.9375 3.77145 4.02145 3.6875 4.125 3.6875C4.22855 3.6875 4.3125 3.77145 4.3125 3.875ZM4.3125 3.875H4.125M6.1875 3.875C6.1875 3.97855 6.10355 4.0625 6 4.0625C5.89645 4.0625 5.8125 3.97855 5.8125 3.875C5.8125 3.77145 5.89645 3.6875 6 3.6875C6.10355 3.6875 6.1875 3.77145 6.1875 3.875ZM6.1875 3.875H6M8.0625 3.875C8.0625 3.97855 7.97855 4.0625 7.875 4.0625C7.77145 4.0625 7.6875 3.97855 7.6875 3.875C7.6875 3.77145 7.77145 3.6875 7.875 3.6875C7.97855 3.6875 8.0625 3.77145 8.0625 3.875ZM8.0625 3.875H7.875M1.125 5.37967C1.125 6.18021 1.68671 6.87702 2.47873 6.99348C3.02178 7.07333 3.57075 7.13499 4.125 7.17782V9.5L6.21674 7.40826C6.32011 7.30489 6.45967 7.24613 6.6058 7.24251C7.59358 7.21804 8.56655 7.1339 9.52124 6.99354C10.3133 6.8771 10.875 6.18028 10.875 5.37973V2.37028C10.875 1.56973 10.3133 0.872913 9.52125 0.756467C8.37202 0.587507 7.1963 0.5 6.00014 0.5C4.80388 0.5 3.62806 0.587522 2.47873 0.756512C1.68671 0.872967 1.125 1.56978 1.125 2.37032V5.37967Z" stroke="#0F172A" stroke-width="0.7" stroke-linecap="round" stroke-linejoin="round"/>
</g>
<defs>
<clipPath id="clip0_74_429">
<rect width="12" height="10" fill="white"/>
</clipPath>
</defs>
</svg>
