<svg width="12" height="10" viewBox="0 0 12 10" fill="none" xmlns="http://www.w3.org/2000/svg">
<g clip-path="url(#clip0_74_426)">
<path fill-rule="evenodd" clip-rule="evenodd" d="M6.00014 0.125C4.78556 0.125 3.59151 0.213864 2.42418 0.385502C1.43502 0.530942 0.75 1.39728 0.75 2.37032V5.37967C0.75 6.35272 1.43502 7.21905 2.42418 7.36449C2.86246 7.42893 3.30451 7.48171 3.75 7.52249V9.5C3.75 9.65167 3.84137 9.78841 3.98149 9.84645C4.12162 9.9045 4.28292 9.87241 4.39016 9.76517L6.48191 7.67342C6.51591 7.63942 6.5633 7.61868 6.61509 7.61739C7.61807 7.59255 8.60615 7.50711 9.57579 7.36455C10.565 7.21912 11.25 6.35278 11.25 5.37973V2.37028C11.25 1.39722 10.565 0.530885 9.57579 0.385456C8.40856 0.213848 7.21461 0.125 6.00014 0.125ZM4.125 3.3125C3.81434 3.3125 3.5625 3.56434 3.5625 3.875C3.5625 4.18566 3.81434 4.4375 4.125 4.4375C4.43566 4.4375 4.6875 4.18566 4.6875 3.875C4.6875 3.56434 4.43566 3.3125 4.125 3.3125ZM5.4375 3.875C5.4375 3.56434 5.68934 3.3125 6 3.3125C6.31066 3.3125 6.5625 3.56434 6.5625 3.875C6.5625 4.18566 6.31066 4.4375 6 4.4375C5.68934 4.4375 5.4375 4.18566 5.4375 3.875ZM7.875 3.3125C7.56434 3.3125 7.3125 3.56434 7.3125 3.875C7.3125 4.18566 7.56434 4.4375 7.875 4.4375C8.18566 4.4375 8.4375 4.18566 8.4375 3.875C8.4375 3.56434 8.18566 3.3125 7.875 3.3125Z" fill="#0F172A"/>
</g>
<defs>
<clipPath id="clip0_74_426">
<rect width="12" height="10" fill="white"/>
</clipPath>
</defs>
</svg>
