<svg width="26" height="22" viewBox="0 0 26 22" fill="none" xmlns="http://www.w3.org/2000/svg">
<path d="M9.72723 8.86198C9.72723 9.05886 9.56442 9.21846 9.36359 9.21846C9.16276 9.21846 8.99996 9.05886 8.99996 8.86198C8.99996 8.6651 9.16276 8.5055 9.36359 8.5055C9.56442 8.5055 9.72723 8.6651 9.72723 8.86198ZM9.72723 8.86198H9.36359M13.3636 8.86198C13.3636 9.05886 13.2008 9.21846 13 9.21846C12.7991 9.21846 12.6363 9.05886 12.6363 8.86198C12.6363 8.6651 12.7991 8.5055 13 8.5055C13.2008 8.5055 13.3636 8.6651 13.3636 8.86198ZM13.3636 8.86198H13M17 8.86198C17 9.05886 16.8372 9.21846 16.6363 9.21846C16.4355 9.21846 16.2727 9.05886 16.2727 8.86198C16.2727 8.6651 16.4355 8.5055 16.6363 8.5055C16.8372 8.5055 17 8.6651 17 8.86198ZM17 8.86198H16.6363M3.54541 11.7227C3.54541 13.2447 4.63478 14.5695 6.17083 14.7909C7.22402 14.9428 8.28869 15.06 9.36359 15.1414V19.5564L13.4203 15.5795C13.6208 15.383 13.8914 15.2713 14.1748 15.2644C16.0905 15.2179 17.9775 15.0579 19.829 14.7911C21.3651 14.5697 22.4545 13.2449 22.4545 11.7228V6.00115C22.4545 4.47912 21.3651 3.15431 19.829 2.93292C17.6002 2.61168 15.3201 2.44531 13.0002 2.44531C10.6802 2.44531 8.39983 2.61171 6.17083 2.933C4.63478 3.15441 3.54541 4.47922 3.54541 6.00123V11.7227Z" stroke="#0F172A" stroke-width="1.2" stroke-linecap="round" stroke-linejoin="round"/>
</svg>
