<svg width="24" height="24" viewBox="0 0 24 24" fill="none" xmlns="http://www.w3.org/2000/svg">
<path fill-rule="evenodd" clip-rule="evenodd" d="M17.2779 2.61378C17.3743 2.37792 17.5572 2.18776 17.7891 2.08214C18.0209 1.97652 18.2844 1.96341 18.5256 2.04548C18.7669 2.12755 18.9677 2.29861 19.0871 2.52373C19.2064 2.74886 19.2353 3.01105 19.1679 3.25678L19.1299 3.36678L16.5199 9.78679L17.1769 9.96179C18.2269 10.2428 19.1009 11.0958 19.2669 12.2598C19.4089 13.2598 19.5419 14.7798 19.3589 16.3458C19.1769 17.8978 18.6689 19.6238 17.4119 20.8918C16.9499 21.3578 16.2869 21.4318 15.8389 21.4398C15.3279 21.4478 14.7389 21.3698 14.1339 21.2498C12.9179 21.0078 11.4589 20.5598 10.0799 20.0838L9.66592 19.9388L8.85292 19.6448L8.07292 19.3538L7.33892 19.0708L6.36092 18.6828C5.80871 18.4618 5.25933 18.2338 4.71292 17.9988C4.554 17.9299 4.41569 17.8209 4.31154 17.6825C4.20739 17.5441 4.14098 17.3811 4.1188 17.2093C4.09662 17.0375 4.11944 16.8629 4.18502 16.7026C4.25061 16.5423 4.3567 16.4018 4.49292 16.2948C5.87092 15.2148 7.16292 13.9728 8.25492 12.8258L8.78292 12.2618C8.86959 12.1691 8.95326 12.0778 9.03392 11.9878L9.50592 11.4608L9.72592 11.2088L10.3199 10.5138L10.6569 10.1078C11.0098 9.67486 11.4731 9.34532 11.9978 9.15398C12.5225 8.96265 13.0892 8.91663 13.6379 9.02079L13.8369 9.06678L14.5739 9.26378L17.2779 2.61378ZM13.3189 10.9988C13.1162 10.9482 12.9033 10.957 12.7054 11.024C12.5076 11.091 12.3332 11.2135 12.2029 11.3768L11.9599 11.6698L17.3579 13.1158L17.3109 12.7238L17.2859 12.5418C17.2499 12.2888 17.0709 12.0508 16.7759 11.9318L16.6599 11.8938L13.3189 10.9988ZM5.56492 7.71678L5.62892 7.85678C5.90162 8.42088 6.33108 8.89444 6.86592 9.22079L6.96592 9.27878C6.97631 9.28474 6.98495 9.29333 6.99095 9.30369C6.99695 9.31405 7.00012 9.32581 7.00012 9.33778C7.00012 9.34976 6.99695 9.36152 6.99095 9.37188C6.98495 9.38224 6.97631 9.39083 6.96592 9.39678L6.86592 9.45479C6.33117 9.78182 5.90203 10.2561 5.62992 10.8208L5.56592 10.9598C5.56038 10.9724 5.55128 10.9831 5.53974 10.9907C5.52819 10.9982 5.51471 11.0022 5.50092 11.0022C5.48714 11.0022 5.47365 10.9982 5.46211 10.9907C5.45057 10.9831 5.44147 10.9724 5.43592 10.9598L5.37192 10.8198C5.09923 10.2557 4.66977 9.78213 4.13492 9.45578L4.03492 9.39779C4.02453 9.39183 4.0159 9.38324 4.0099 9.37288C4.00389 9.36252 4.00073 9.35076 4.00073 9.33879C4.00073 9.32681 4.00389 9.31505 4.0099 9.30469C4.0159 9.29433 4.02453 9.28574 4.03492 9.27979L4.13492 9.22178C4.66931 8.8946 5.09809 8.42034 5.36992 7.85578L5.43392 7.71678C5.43947 7.70417 5.44857 7.69343 5.46011 7.6859C5.47165 7.67836 5.48514 7.67435 5.49892 7.67435C5.51271 7.67435 5.52619 7.67836 5.53774 7.6859C5.54928 7.69343 5.55938 7.70417 5.56492 7.71678ZM8.39692 2.85778C8.43692 2.76778 8.56292 2.76778 8.60292 2.85778L8.70492 3.07978C9.13979 3.97741 9.82364 4.73103 10.6749 5.25078L10.8319 5.34378C10.8488 5.35312 10.8629 5.36682 10.8727 5.38343C10.8825 5.40005 10.8876 5.41899 10.8876 5.43828C10.8876 5.45758 10.8825 5.47652 10.8727 5.49314C10.8629 5.50975 10.8488 5.52344 10.8319 5.53278L10.6739 5.62478C9.82249 6.14481 9.13863 6.89879 8.70392 7.79678L8.60392 8.01878C8.59511 8.0389 8.58063 8.05601 8.56225 8.06802C8.54387 8.08003 8.52238 8.08643 8.50042 8.08643C8.47846 8.08643 8.45698 8.08003 8.4386 8.06802C8.42022 8.05601 8.40574 8.0389 8.39692 8.01878L8.29492 7.79678C7.86022 6.89879 7.17635 6.14481 6.32492 5.62478L6.16692 5.53278C6.15004 5.52344 6.13597 5.50975 6.12617 5.49314C6.11638 5.47652 6.11121 5.45758 6.11121 5.43828C6.11121 5.41899 6.11638 5.40005 6.12617 5.38343C6.13597 5.36682 6.15004 5.35312 6.16692 5.34378L6.32592 5.25078C7.17721 4.73103 7.86106 3.97741 8.29592 3.07978L8.39592 2.85778H8.39692Z" fill="#3270FF"/>
</svg>
