<svg width="20" height="20" viewBox="0 0 20 20" fill="none" xmlns="http://www.w3.org/2000/svg">
  <path d="M16.6667 5.83333V14.1667C16.6667 14.3877 16.5789 14.5996 16.4226 14.7559C16.2663 14.9122 16.0543 15 15.8333 15H4.16667C3.94565 15 3.73369 14.9122 3.5774 14.7559C3.42112 14.5996 3.33333 14.3877 3.33333 14.1667V5.83333C3.33333 5.61232 3.42112 5.40036 3.5774 5.24408C3.73369 5.08779 3.94565 5 4.16667 5H15.8333C16.0543 5 16.2663 5.08779 16.4226 5.24408C16.5789 5.40036 16.6667 5.61232 16.6667 5.83333ZM14.1667 5.83333H5.83333V14.1667H14.1667V5.83333ZM7.5 7.5H12.5V9.16667H7.5V7.5ZM7.5 10.8333H12.5V12.5H7.5V10.8333Z" fill="#6B7280"/>
</svg> 