<svg width="24" height="24" viewBox="0 0 24 24" fill="none" xmlns="http://www.w3.org/2000/svg">
<path d="M16.1399 2.25C15.2515 2.24965 14.3758 2.46029 13.5847 2.86458C12.7936 3.26887 12.1099 3.85525 11.5898 4.57545C11.0696 5.29565 10.728 6.12908 10.5929 7.00714C10.4579 7.8852 10.5333 8.78278 10.8129 9.626L2.76992 17.671C2.43748 18.0037 2.25073 18.4547 2.25073 18.925C2.25073 19.3953 2.43748 19.8463 2.76992 20.179L3.82192 21.231C3.98659 21.3959 4.18214 21.5267 4.3974 21.6159C4.61265 21.7052 4.84339 21.7511 5.07642 21.7511C5.30944 21.7511 5.54018 21.7052 5.75544 21.6159C5.9707 21.5267 6.16625 21.3959 6.33092 21.231L14.3749 13.186C15.3351 13.5049 16.3637 13.5582 17.3518 13.3402C18.3398 13.1222 19.2505 12.6411 19.9874 11.9477C20.7243 11.2544 21.26 10.3747 21.5377 9.40173C21.8154 8.42879 21.8248 7.39886 21.5649 6.421C21.2989 5.417 20.1229 5.317 19.5329 5.907L17.8099 7.629C17.7162 7.72636 17.6039 7.80406 17.4798 7.85754C17.3557 7.91103 17.2221 7.93923 17.087 7.94051C16.9518 7.94178 16.8177 7.9161 16.6926 7.86496C16.5675 7.81382 16.4538 7.73826 16.3582 7.64268C16.2627 7.5471 16.1871 7.43343 16.136 7.30831C16.0848 7.18319 16.0591 7.04913 16.0604 6.91397C16.0617 6.77881 16.0899 6.64526 16.1434 6.52113C16.1969 6.39699 16.2746 6.28476 16.3719 6.191L18.0939 4.468C18.6839 3.878 18.5839 2.702 17.5789 2.436C17.1097 2.31195 16.6263 2.24942 16.1409 2.25" fill="#152147"/>
<path d="M16.1399 2.25C15.2515 2.24965 14.3758 2.46029 13.5847 2.86458C12.7936 3.26887 12.1099 3.85525 11.5898 4.57545C11.0696 5.29565 10.728 6.12908 10.5929 7.00714C10.4579 7.8852 10.5333 8.78278 10.8129 9.626L2.76992 17.671C2.43748 18.0037 2.25073 18.4547 2.25073 18.925C2.25073 19.3953 2.43748 19.8463 2.76992 20.179L3.82192 21.231C3.98659 21.3959 4.18214 21.5267 4.3974 21.6159C4.61265 21.7052 4.84339 21.7511 5.07642 21.7511C5.30944 21.7511 5.54018 21.7052 5.75544 21.6159C5.9707 21.5267 6.16625 21.3959 6.33092 21.231L14.3749 13.186C15.3351 13.5049 16.3637 13.5582 17.3518 13.3402C18.3398 13.1222 19.2505 12.6411 19.9874 11.9477C20.7243 11.2544 21.26 10.3747 21.5377 9.40173C21.8154 8.42879 21.8248 7.39886 21.5649 6.421C21.2989 5.417 20.1229 5.317 19.5329 5.907L17.8099 7.629C17.7162 7.72636 17.6039 7.80406 17.4798 7.85754C17.3557 7.91103 17.2221 7.93923 17.087 7.94051C16.9518 7.94178 16.8177 7.9161 16.6926 7.86496C16.5675 7.81382 16.4538 7.73826 16.3582 7.64268C16.2627 7.5471 16.1871 7.43343 16.136 7.30831C16.0848 7.18319 16.0591 7.04913 16.0604 6.91397C16.0617 6.77881 16.0899 6.64526 16.1434 6.52113C16.1969 6.39699 16.2746 6.28476 16.3719 6.191L18.0939 4.468C18.6839 3.878 18.5839 2.702 17.5789 2.436C17.1097 2.31195 16.6263 2.24942 16.1409 2.25" fill="black" fill-opacity="0.2"/>
<path d="M16.1399 2.25C15.2515 2.24965 14.3758 2.46029 13.5847 2.86458C12.7936 3.26887 12.1099 3.85525 11.5898 4.57545C11.0696 5.29565 10.728 6.12908 10.5929 7.00714C10.4579 7.8852 10.5333 8.78278 10.8129 9.626L2.76992 17.671C2.43748 18.0037 2.25073 18.4547 2.25073 18.925C2.25073 19.3953 2.43748 19.8463 2.76992 20.179L3.82192 21.231C3.98659 21.3959 4.18214 21.5267 4.3974 21.6159C4.61265 21.7052 4.84339 21.7511 5.07642 21.7511C5.30944 21.7511 5.54018 21.7052 5.75544 21.6159C5.9707 21.5267 6.16625 21.3959 6.33092 21.231L14.3749 13.186C15.3351 13.5049 16.3637 13.5582 17.3518 13.3402C18.3398 13.1222 19.2505 12.6411 19.9874 11.9477C20.7243 11.2544 21.26 10.3747 21.5377 9.40173C21.8154 8.42879 21.8248 7.39886 21.5649 6.421C21.2989 5.417 20.1229 5.317 19.5329 5.907L17.8099 7.629C17.7162 7.72636 17.6039 7.80406 17.4798 7.85754C17.3557 7.91103 17.2221 7.93923 17.087 7.94051C16.9518 7.94178 16.8177 7.9161 16.6926 7.86496C16.5675 7.81382 16.4538 7.73826 16.3582 7.64268C16.2627 7.5471 16.1871 7.43343 16.136 7.30831C16.0848 7.18319 16.0591 7.04913 16.0604 6.91397C16.0617 6.77881 16.0899 6.64526 16.1434 6.52113C16.1969 6.39699 16.2746 6.28476 16.3719 6.191L18.0939 4.468C18.6839 3.878 18.5839 2.702 17.5789 2.436C17.1097 2.31195 16.6263 2.24942 16.1409 2.25" fill="black" fill-opacity="0.2"/>
<path d="M16.1399 2.25C15.2515 2.24965 14.3758 2.46029 13.5847 2.86458C12.7936 3.26887 12.1099 3.85525 11.5898 4.57545C11.0696 5.29565 10.728 6.12908 10.5929 7.00714C10.4579 7.8852 10.5333 8.78278 10.8129 9.626L2.76992 17.671C2.43748 18.0037 2.25073 18.4547 2.25073 18.925C2.25073 19.3953 2.43748 19.8463 2.76992 20.179L3.82192 21.231C3.98659 21.3959 4.18214 21.5267 4.3974 21.6159C4.61265 21.7052 4.84339 21.7511 5.07642 21.7511C5.30944 21.7511 5.54018 21.7052 5.75544 21.6159C5.9707 21.5267 6.16625 21.3959 6.33092 21.231L14.3749 13.186C15.3351 13.5049 16.3637 13.5582 17.3518 13.3402C18.3398 13.1222 19.2505 12.6411 19.9874 11.9477C20.7243 11.2544 21.26 10.3747 21.5377 9.40173C21.8154 8.42879 21.8248 7.39886 21.5649 6.421C21.2989 5.417 20.1229 5.317 19.5329 5.907L17.8099 7.629C17.7162 7.72636 17.6039 7.80406 17.4798 7.85754C17.3557 7.91103 17.2221 7.93923 17.087 7.94051C16.9518 7.94178 16.8177 7.9161 16.6926 7.86496C16.5675 7.81382 16.4538 7.73826 16.3582 7.64268C16.2627 7.5471 16.1871 7.43343 16.136 7.30831C16.0848 7.18319 16.0591 7.04913 16.0604 6.91397C16.0617 6.77881 16.0899 6.64526 16.1434 6.52113C16.1969 6.39699 16.2746 6.28476 16.3719 6.191L18.0939 4.468C18.6839 3.878 18.5839 2.702 17.5789 2.436C17.1097 2.31195 16.6263 2.24942 16.1409 2.25" fill="black" fill-opacity="0.2"/>
<path d="M16.1399 2.25C15.2515 2.24965 14.3758 2.46029 13.5847 2.86458C12.7936 3.26887 12.1099 3.85525 11.5898 4.57545C11.0696 5.29565 10.728 6.12908 10.5929 7.00714C10.4579 7.8852 10.5333 8.78278 10.8129 9.626L2.76992 17.671C2.43748 18.0037 2.25073 18.4547 2.25073 18.925C2.25073 19.3953 2.43748 19.8463 2.76992 20.179L3.82192 21.231C3.98659 21.3959 4.18214 21.5267 4.3974 21.6159C4.61265 21.7052 4.84339 21.7511 5.07642 21.7511C5.30944 21.7511 5.54018 21.7052 5.75544 21.6159C5.9707 21.5267 6.16625 21.3959 6.33092 21.231L14.3749 13.186C15.3351 13.5049 16.3637 13.5582 17.3518 13.3402C18.3398 13.1222 19.2505 12.6411 19.9874 11.9477C20.7243 11.2544 21.26 10.3747 21.5377 9.40173C21.8154 8.42879 21.8248 7.39886 21.5649 6.421C21.2989 5.417 20.1229 5.317 19.5329 5.907L17.8099 7.629C17.7162 7.72636 17.6039 7.80406 17.4798 7.85754C17.3557 7.91103 17.2221 7.93923 17.087 7.94051C16.9518 7.94178 16.8177 7.9161 16.6926 7.86496C16.5675 7.81382 16.4538 7.73826 16.3582 7.64268C16.2627 7.5471 16.1871 7.43343 16.136 7.30831C16.0848 7.18319 16.0591 7.04913 16.0604 6.91397C16.0617 6.77881 16.0899 6.64526 16.1434 6.52113C16.1969 6.39699 16.2746 6.28476 16.3719 6.191L18.0939 4.468C18.6839 3.878 18.5839 2.702 17.5789 2.436C17.1097 2.31195 16.6263 2.24942 16.1409 2.25" fill="black" fill-opacity="0.2"/>
<path d="M16.1399 2.25C15.2515 2.24965 14.3758 2.46029 13.5847 2.86458C12.7936 3.26887 12.1099 3.85525 11.5898 4.57545C11.0696 5.29565 10.728 6.12908 10.5929 7.00714C10.4579 7.8852 10.5333 8.78278 10.8129 9.626L2.76992 17.671C2.43748 18.0037 2.25073 18.4547 2.25073 18.925C2.25073 19.3953 2.43748 19.8463 2.76992 20.179L3.82192 21.231C3.98659 21.3959 4.18214 21.5267 4.3974 21.6159C4.61265 21.7052 4.84339 21.7511 5.07642 21.7511C5.30944 21.7511 5.54018 21.7052 5.75544 21.6159C5.9707 21.5267 6.16625 21.3959 6.33092 21.231L14.3749 13.186C15.3351 13.5049 16.3637 13.5582 17.3518 13.3402C18.3398 13.1222 19.2505 12.6411 19.9874 11.9477C20.7243 11.2544 21.26 10.3747 21.5377 9.40173C21.8154 8.42879 21.8248 7.39886 21.5649 6.421C21.2989 5.417 20.1229 5.317 19.5329 5.907L17.8099 7.629C17.7162 7.72636 17.6039 7.80406 17.4798 7.85754C17.3557 7.91103 17.2221 7.93923 17.087 7.94051C16.9518 7.94178 16.8177 7.9161 16.6926 7.86496C16.5675 7.81382 16.4538 7.73826 16.3582 7.64268C16.2627 7.5471 16.1871 7.43343 16.136 7.30831C16.0848 7.18319 16.0591 7.04913 16.0604 6.91397C16.0617 6.77881 16.0899 6.64526 16.1434 6.52113C16.1969 6.39699 16.2746 6.28476 16.3719 6.191L18.0939 4.468C18.6839 3.878 18.5839 2.702 17.5789 2.436C17.1097 2.31195 16.6263 2.24942 16.1409 2.25" fill="black" fill-opacity="0.2"/>
<path d="M16.1399 2.25C15.2515 2.24965 14.3758 2.46029 13.5847 2.86458C12.7936 3.26887 12.1099 3.85525 11.5898 4.57545C11.0696 5.29565 10.728 6.12908 10.5929 7.00714C10.4579 7.8852 10.5333 8.78278 10.8129 9.626L2.76992 17.671C2.43748 18.0037 2.25073 18.4547 2.25073 18.925C2.25073 19.3953 2.43748 19.8463 2.76992 20.179L3.82192 21.231C3.98659 21.3959 4.18214 21.5267 4.3974 21.6159C4.61265 21.7052 4.84339 21.7511 5.07642 21.7511C5.30944 21.7511 5.54018 21.7052 5.75544 21.6159C5.9707 21.5267 6.16625 21.3959 6.33092 21.231L14.3749 13.186C15.3351 13.5049 16.3637 13.5582 17.3518 13.3402C18.3398 13.1222 19.2505 12.6411 19.9874 11.9477C20.7243 11.2544 21.26 10.3747 21.5377 9.40173C21.8154 8.42879 21.8248 7.39886 21.5649 6.421C21.2989 5.417 20.1229 5.317 19.5329 5.907L17.8099 7.629C17.7162 7.72636 17.6039 7.80406 17.4798 7.85754C17.3557 7.91103 17.2221 7.93923 17.087 7.94051C16.9518 7.94178 16.8177 7.9161 16.6926 7.86496C16.5675 7.81382 16.4538 7.73826 16.3582 7.64268C16.2627 7.5471 16.1871 7.43343 16.136 7.30831C16.0848 7.18319 16.0591 7.04913 16.0604 6.91397C16.0617 6.77881 16.0899 6.64526 16.1434 6.52113C16.1969 6.39699 16.2746 6.28476 16.3719 6.191L18.0939 4.468C18.6839 3.878 18.5839 2.702 17.5789 2.436C17.1097 2.31195 16.6263 2.24942 16.1409 2.25" fill="black" fill-opacity="0.2"/>
<path d="M16.1399 2.25C15.2515 2.24965 14.3758 2.46029 13.5847 2.86458C12.7936 3.26887 12.1099 3.85525 11.5898 4.57545C11.0696 5.29565 10.728 6.12908 10.5929 7.00714C10.4579 7.8852 10.5333 8.78278 10.8129 9.626L2.76992 17.671C2.43748 18.0037 2.25073 18.4547 2.25073 18.925C2.25073 19.3953 2.43748 19.8463 2.76992 20.179L3.82192 21.231C3.98659 21.3959 4.18214 21.5267 4.3974 21.6159C4.61265 21.7052 4.84339 21.7511 5.07642 21.7511C5.30944 21.7511 5.54018 21.7052 5.75544 21.6159C5.9707 21.5267 6.16625 21.3959 6.33092 21.231L14.3749 13.186C15.3351 13.5049 16.3637 13.5582 17.3518 13.3402C18.3398 13.1222 19.2505 12.6411 19.9874 11.9477C20.7243 11.2544 21.26 10.3747 21.5377 9.40173C21.8154 8.42879 21.8248 7.39886 21.5649 6.421C21.2989 5.417 20.1229 5.317 19.5329 5.907L17.8099 7.629C17.7162 7.72636 17.6039 7.80406 17.4798 7.85754C17.3557 7.91103 17.2221 7.93923 17.087 7.94051C16.9518 7.94178 16.8177 7.9161 16.6926 7.86496C16.5675 7.81382 16.4538 7.73826 16.3582 7.64268C16.2627 7.5471 16.1871 7.43343 16.136 7.30831C16.0848 7.18319 16.0591 7.04913 16.0604 6.91397C16.0617 6.77881 16.0899 6.64526 16.1434 6.52113C16.1969 6.39699 16.2746 6.28476 16.3719 6.191L18.0939 4.468C18.6839 3.878 18.5839 2.702 17.5789 2.436C17.1097 2.31195 16.6263 2.24942 16.1409 2.25" fill="black" fill-opacity="0.2"/>
<path d="M16.1399 2.25C15.2515 2.24965 14.3758 2.46029 13.5847 2.86458C12.7936 3.26887 12.1099 3.85525 11.5898 4.57545C11.0696 5.29565 10.728 6.12908 10.5929 7.00714C10.4579 7.8852 10.5333 8.78278 10.8129 9.626L2.76992 17.671C2.43748 18.0037 2.25073 18.4547 2.25073 18.925C2.25073 19.3953 2.43748 19.8463 2.76992 20.179L3.82192 21.231C3.98659 21.3959 4.18214 21.5267 4.3974 21.6159C4.61265 21.7052 4.84339 21.7511 5.07642 21.7511C5.30944 21.7511 5.54018 21.7052 5.75544 21.6159C5.9707 21.5267 6.16625 21.3959 6.33092 21.231L14.3749 13.186C15.3351 13.5049 16.3637 13.5582 17.3518 13.3402C18.3398 13.1222 19.2505 12.6411 19.9874 11.9477C20.7243 11.2544 21.26 10.3747 21.5377 9.40173C21.8154 8.42879 21.8248 7.39886 21.5649 6.421C21.2989 5.417 20.1229 5.317 19.5329 5.907L17.8099 7.629C17.7162 7.72636 17.6039 7.80406 17.4798 7.85754C17.3557 7.91103 17.2221 7.93923 17.087 7.94051C16.9518 7.94178 16.8177 7.9161 16.6926 7.86496C16.5675 7.81382 16.4538 7.73826 16.3582 7.64268C16.2627 7.5471 16.1871 7.43343 16.136 7.30831C16.0848 7.18319 16.0591 7.04913 16.0604 6.91397C16.0617 6.77881 16.0899 6.64526 16.1434 6.52113C16.1969 6.39699 16.2746 6.28476 16.3719 6.191L18.0939 4.468C18.6839 3.878 18.5839 2.702 17.5789 2.436C17.1097 2.31195 16.6263 2.24942 16.1409 2.25" fill="black" fill-opacity="0.2"/>
<path d="M16.1399 2.25C15.2515 2.24965 14.3758 2.46029 13.5847 2.86458C12.7936 3.26887 12.1099 3.85525 11.5898 4.57545C11.0696 5.29565 10.728 6.12908 10.5929 7.00714C10.4579 7.8852 10.5333 8.78278 10.8129 9.626L2.76992 17.671C2.43748 18.0037 2.25073 18.4547 2.25073 18.925C2.25073 19.3953 2.43748 19.8463 2.76992 20.179L3.82192 21.231C3.98659 21.3959 4.18214 21.5267 4.3974 21.6159C4.61265 21.7052 4.84339 21.7511 5.07642 21.7511C5.30944 21.7511 5.54018 21.7052 5.75544 21.6159C5.9707 21.5267 6.16625 21.3959 6.33092 21.231L14.3749 13.186C15.3351 13.5049 16.3637 13.5582 17.3518 13.3402C18.3398 13.1222 19.2505 12.6411 19.9874 11.9477C20.7243 11.2544 21.26 10.3747 21.5377 9.40173C21.8154 8.42879 21.8248 7.39886 21.5649 6.421C21.2989 5.417 20.1229 5.317 19.5329 5.907L17.8099 7.629C17.7162 7.72636 17.6039 7.80406 17.4798 7.85754C17.3557 7.91103 17.2221 7.93923 17.087 7.94051C16.9518 7.94178 16.8177 7.9161 16.6926 7.86496C16.5675 7.81382 16.4538 7.73826 16.3582 7.64268C16.2627 7.5471 16.1871 7.43343 16.136 7.30831C16.0848 7.18319 16.0591 7.04913 16.0604 6.91397C16.0617 6.77881 16.0899 6.64526 16.1434 6.52113C16.1969 6.39699 16.2746 6.28476 16.3719 6.191L18.0939 4.468C18.6839 3.878 18.5839 2.702 17.5789 2.436C17.1097 2.31195 16.6263 2.24942 16.1409 2.25" fill="black" fill-opacity="0.2"/>
<path d="M16.1399 2.25C15.2515 2.24965 14.3758 2.46029 13.5847 2.86458C12.7936 3.26887 12.1099 3.85525 11.5898 4.57545C11.0696 5.29565 10.728 6.12908 10.5929 7.00714C10.4579 7.8852 10.5333 8.78278 10.8129 9.626L2.76992 17.671C2.43748 18.0037 2.25073 18.4547 2.25073 18.925C2.25073 19.3953 2.43748 19.8463 2.76992 20.179L3.82192 21.231C3.98659 21.3959 4.18214 21.5267 4.3974 21.6159C4.61265 21.7052 4.84339 21.7511 5.07642 21.7511C5.30944 21.7511 5.54018 21.7052 5.75544 21.6159C5.9707 21.5267 6.16625 21.3959 6.33092 21.231L14.3749 13.186C15.3351 13.5049 16.3637 13.5582 17.3518 13.3402C18.3398 13.1222 19.2505 12.6411 19.9874 11.9477C20.7243 11.2544 21.26 10.3747 21.5377 9.40173C21.8154 8.42879 21.8248 7.39886 21.5649 6.421C21.2989 5.417 20.1229 5.317 19.5329 5.907L17.8099 7.629C17.7162 7.72636 17.6039 7.80406 17.4798 7.85754C17.3557 7.91103 17.2221 7.93923 17.087 7.94051C16.9518 7.94178 16.8177 7.9161 16.6926 7.86496C16.5675 7.81382 16.4538 7.73826 16.3582 7.64268C16.2627 7.5471 16.1871 7.43343 16.136 7.30831C16.0848 7.18319 16.0591 7.04913 16.0604 6.91397C16.0617 6.77881 16.0899 6.64526 16.1434 6.52113C16.1969 6.39699 16.2746 6.28476 16.3719 6.191L18.0939 4.468C18.6839 3.878 18.5839 2.702 17.5789 2.436C17.1097 2.31195 16.6263 2.24942 16.1409 2.25" fill="black" fill-opacity="0.2"/>
<path d="M16.1399 2.25C15.2515 2.24965 14.3758 2.46029 13.5847 2.86458C12.7936 3.26887 12.1099 3.85525 11.5898 4.57545C11.0696 5.29565 10.728 6.12908 10.5929 7.00714C10.4579 7.8852 10.5333 8.78278 10.8129 9.626L2.76992 17.671C2.43748 18.0037 2.25073 18.4547 2.25073 18.925C2.25073 19.3953 2.43748 19.8463 2.76992 20.179L3.82192 21.231C3.98659 21.3959 4.18214 21.5267 4.3974 21.6159C4.61265 21.7052 4.84339 21.7511 5.07642 21.7511C5.30944 21.7511 5.54018 21.7052 5.75544 21.6159C5.9707 21.5267 6.16625 21.3959 6.33092 21.231L14.3749 13.186C15.3351 13.5049 16.3637 13.5582 17.3518 13.3402C18.3398 13.1222 19.2505 12.6411 19.9874 11.9477C20.7243 11.2544 21.26 10.3747 21.5377 9.40173C21.8154 8.42879 21.8248 7.39886 21.5649 6.421C21.2989 5.417 20.1229 5.317 19.5329 5.907L17.8099 7.629C17.7162 7.72636 17.6039 7.80406 17.4798 7.85754C17.3557 7.91103 17.2221 7.93923 17.087 7.94051C16.9518 7.94178 16.8177 7.9161 16.6926 7.86496C16.5675 7.81382 16.4538 7.73826 16.3582 7.64268C16.2627 7.5471 16.1871 7.43343 16.136 7.30831C16.0848 7.18319 16.0591 7.04913 16.0604 6.91397C16.0617 6.77881 16.0899 6.64526 16.1434 6.52113C16.1969 6.39699 16.2746 6.28476 16.3719 6.191L18.0939 4.468C18.6839 3.878 18.5839 2.702 17.5789 2.436C17.1097 2.31195 16.6263 2.24942 16.1409 2.25" fill="black" fill-opacity="0.2"/>
</svg>
