<svg width="13" height="12" viewBox="0 0 13 12" fill="none" xmlns="http://www.w3.org/2000/svg">
    <path d="M6.20674 1.47407L6.47817 1.72516L6.74978 1.47427C7.37917 0.892907 8.19675 0.567969 9.04826 0.567969C9.96768 0.567969 10.8477 0.946824 11.4939 1.61839L11.494 1.61851C12.1359 2.28512 12.4951 3.18607 12.4951 4.124C12.4951 5.06197 12.1358 5.96297 11.494 6.62948L11.4939 6.62956C11.0166 7.12553 10.5403 7.63242 10.0635 8.13989L10.355 8.41379L10.0635 8.13989C9.09327 9.17251 8.12047 10.2077 7.11126 11.1819L7.111 11.1821C6.74568 11.5296 6.16665 11.5169 5.81697 11.1536C5.81696 11.1536 5.81696 11.1536 5.81695 11.1536L1.46258 6.62949L1.17969 6.90176L1.46258 6.62949C0.128164 5.24306 0.128163 3.00496 1.46258 1.61851C2.76271 0.267686 4.85147 0.220326 6.20674 1.47407Z" fill="#F7F7FB" stroke="#838383" stroke-width="0.8"/>
</svg>
