<svg width="16" height="14" viewBox="0 0 16 14" fill="none" xmlns="http://www.w3.org/2000/svg">
<path fill-rule="evenodd" clip-rule="evenodd" d="M7.47837 2.18044C8.18021 1.53216 9.09418 1.16797 10.0483 1.16797C11.0785 1.16797 12.062 1.59262 12.7821 2.34106C13.4971 3.08358 13.8951 4.08452 13.8951 5.124C13.8951 6.16352 13.497 7.16452 12.7821 7.90694C12.3068 8.40088 11.8321 8.90602 11.355 9.41379C10.3859 10.4452 9.40648 11.4876 8.38906 12.4697L8.38668 12.472C7.862 12.971 7.03106 12.9529 6.52877 12.431L2.17438 7.90688C0.690896 6.36556 0.690896 3.88246 2.17438 2.34113C3.62608 0.83283 5.96374 0.779271 7.47837 2.18044Z" fill="#DC3644"/>
</svg>
