<svg width="16" height="14" viewBox="0 0 16 14" fill="none" xmlns="http://www.w3.org/2000/svg">
<path d="M7.47817 2.72516L7.20674 2.47407C5.85147 1.22033 3.76271 1.26769 2.46258 2.61851C1.12816 4.00496 1.12816 6.24306 2.46258 7.62949L6.81695 12.1536C6.81696 12.1536 6.81696 12.1536 6.81697 12.1536C7.1666 12.5169 7.74552 12.5296 8.11086 12.1823L7.47817 2.72516ZM7.47817 2.72516L7.74979 2.47427C8.37917 1.89291 9.19675 1.56797 10.0483 1.56797C10.9677 1.56797 11.8477 1.94682 12.4939 2.61839L12.494 2.61851C13.1359 3.28512 13.4951 4.18607 13.4951 5.124C13.4951 6.06197 13.1358 6.96297 12.494 7.62948L12.4939 7.62956C12.0166 8.12553 11.5403 8.63242 11.0635 9.13989L11.348 9.40724L11.0635 9.13989C10.0933 10.1725 9.12047 11.2077 8.11126 12.1819L8.111 12.1821L7.47817 2.72516Z" stroke="#838383" stroke-width="0.8"/>
</svg>
