<svg width="10" height="10" viewBox="0 0 10 10" fill="none" xmlns="http://www.w3.org/2000/svg">
<g clip-path="url(#clip0_74_432)">
<path d="M6.42843 7.54086C7.37571 7.42849 8.28916 7.20578 9.15556 6.88594C8.43717 6.08851 7.9999 5.03282 7.9999 3.875V3.52459C7.99997 3.5164 8 3.50821 8 3.5C8 1.84315 6.65685 0.5 5 0.5C3.34315 0.5 2 1.84315 2 3.5L1.9999 3.875C1.9999 5.03282 1.56264 6.08851 0.844238 6.88594C1.7107 7.2058 2.62422 7.42852 3.57157 7.54088M6.42843 7.54086C5.95999 7.59642 5.48328 7.625 4.9999 7.625C4.51658 7.625 4.03994 7.59643 3.57157 7.54088M6.42843 7.54086C6.4749 7.68556 6.5 7.83985 6.5 8C6.5 8.82843 5.82843 9.5 5 9.5C4.17157 9.5 3.5 8.82843 3.5 8C3.5 7.83986 3.5251 7.68558 3.57157 7.54088" stroke="#0F172A" stroke-width="0.7" stroke-linecap="round" stroke-linejoin="round"/>
</g>
<defs>
<clipPath id="clip0_74_432">
<rect width="10" height="10" fill="white"/>
</clipPath>
</defs>
</svg>
