<svg width="15" height="19" viewBox="0 0 15 19" fill="none" xmlns="http://www.w3.org/2000/svg">
<g clip-path="url(#clip0_309_6364)">
<path fill-rule="evenodd" clip-rule="evenodd" d="M7.08159 18.8616C7.10905 18.878 7.13063 18.8907 7.14591 18.8996L7.1713 18.9142C7.37391 19.029 7.62523 19.0281 7.82804 18.9145L7.85409 18.8996C7.86937 18.8907 7.89095 18.878 7.91841 18.8616C7.97333 18.8287 8.05179 18.7809 8.15046 18.7182C8.34769 18.5928 8.62614 18.4079 8.95874 18.1654C9.62281 17.6812 10.5089 16.9628 11.3969 16.0243C13.1643 14.1566 15 11.3503 15 7.74129C15 3.46589 11.6421 0 7.5 0C3.35786 0 0 3.46589 0 7.74129C0 11.3503 1.83575 14.1566 3.60314 16.0243C4.49114 16.9628 5.37719 17.6812 6.04126 18.1654C6.37386 18.4079 6.65231 18.5928 6.84954 18.7182C6.94821 18.7809 7.02668 18.8287 7.08159 18.8616ZM7.5 10.5563C9.00623 10.5563 10.2273 9.29598 10.2273 7.74129C10.2273 6.1866 9.00623 4.92628 7.5 4.92628C5.99377 4.92628 4.77273 6.1866 4.77273 7.74129C4.77273 9.29598 5.99377 10.5563 7.5 10.5563Z" fill="#545454"/>
</g>
<defs>
<clipPath id="clip0_309_6364">
<rect width="15" height="19" fill="white"/>
</clipPath>
</defs>
</svg>
