<svg width="25" height="24" viewBox="0 0 25 24" fill="none" xmlns="http://www.w3.org/2000/svg">
<path d="M12.5 2C18.022 2 22.5 5.978 22.5 10.889C22.4987 12.362 21.9129 13.7744 20.8712 14.8159C19.8295 15.8574 18.417 16.4429 16.944 16.444H14.978C14.056 16.444 13.311 17.189 13.311 18.111C13.311 18.533 13.478 18.922 13.733 19.211C14 19.511 14.167 19.9 14.167 20.333C14.167 21.256 13.4 22 12.5 22C6.978 22 2.5 17.522 2.5 12C2.5 6.478 6.978 2 12.5 2ZM8 12C8.39782 12 8.77936 11.842 9.06066 11.5607C9.34196 11.2794 9.5 10.8978 9.5 10.5C9.5 10.1022 9.34196 9.72064 9.06066 9.43934C8.77936 9.15804 8.39782 9 8 9C7.60218 9 7.22064 9.15804 6.93934 9.43934C6.65804 9.72064 6.5 10.1022 6.5 10.5C6.5 10.8978 6.65804 11.2794 6.93934 11.5607C7.22064 11.842 7.60218 12 8 12ZM17 12C17.3978 12 17.7794 11.842 18.0607 11.5607C18.342 11.2794 18.5 10.8978 18.5 10.5C18.5 10.1022 18.342 9.72064 18.0607 9.43934C17.7794 9.15804 17.3978 9 17 9C16.6022 9 16.2206 9.15804 15.9393 9.43934C15.658 9.72064 15.5 10.1022 15.5 10.5C15.5 10.8978 15.658 11.2794 15.9393 11.5607C16.2206 11.842 16.6022 12 17 12ZM12.5 9C12.8978 9 13.2794 8.84196 13.5607 8.56066C13.842 8.27936 14 7.89782 14 7.5C14 7.10218 13.842 6.72064 13.5607 6.43934C13.2794 6.15804 12.8978 6 12.5 6C12.1022 6 11.7206 6.15804 11.4393 6.43934C11.158 6.72064 11 7.10218 11 7.5C11 7.89782 11.158 8.27936 11.4393 8.56066C11.7206 8.84196 12.1022 9 12.5 9Z" fill="#3270FF"/>
</svg>
