<svg width="25" height="24" viewBox="0 0 25 24" fill="none" xmlns="http://www.w3.org/2000/svg">
<path fill-rule="evenodd" clip-rule="evenodd" d="M20.6305 3.15961C20.068 2.5972 19.305 2.28125 18.5095 2.28125C17.714 2.28125 16.9511 2.5972 16.3885 3.15961L15.6815 3.86761L20.6315 8.81761L21.3375 8.11061C21.6162 7.83203 21.8372 7.50129 21.988 7.13728C22.1388 6.77327 22.2164 6.38312 22.2164 5.98911C22.2164 5.5951 22.1388 5.20495 21.988 4.84094C21.8372 4.47693 21.6162 4.14619 21.3375 3.86761L20.6305 3.15961ZM19.2165 10.2316L14.2665 5.28161L5.17654 14.3726C4.97762 14.5716 4.83866 14.8224 4.77554 15.0966L3.74654 19.5516C3.7082 19.717 3.71259 19.8894 3.75932 20.0526C3.80604 20.2159 3.89355 20.3645 4.0136 20.4846C4.13365 20.6046 4.28228 20.6921 4.4455 20.7388C4.60872 20.7856 4.78115 20.79 4.94654 20.7516L9.40254 19.7236C9.67634 19.6603 9.92686 19.5214 10.1255 19.3226L19.2165 10.2316Z" fill="#152147"/>
<path fill-rule="evenodd" clip-rule="evenodd" d="M20.6305 3.15961C20.068 2.5972 19.305 2.28125 18.5095 2.28125C17.714 2.28125 16.9511 2.5972 16.3885 3.15961L15.6815 3.86761L20.6315 8.81761L21.3375 8.11061C21.6162 7.83203 21.8372 7.50129 21.988 7.13728C22.1388 6.77327 22.2164 6.38312 22.2164 5.98911C22.2164 5.5951 22.1388 5.20495 21.988 4.84094C21.8372 4.47693 21.6162 4.14619 21.3375 3.86761L20.6305 3.15961ZM19.2165 10.2316L14.2665 5.28161L5.17654 14.3726C4.97762 14.5716 4.83866 14.8224 4.77554 15.0966L3.74654 19.5516C3.7082 19.717 3.71259 19.8894 3.75932 20.0526C3.80604 20.2159 3.89355 20.3645 4.0136 20.4846C4.13365 20.6046 4.28228 20.6921 4.4455 20.7388C4.60872 20.7856 4.78115 20.79 4.94654 20.7516L9.40254 19.7236C9.67634 19.6603 9.92686 19.5214 10.1255 19.3226L19.2165 10.2316Z" fill="black" fill-opacity="0.2"/>
<path fill-rule="evenodd" clip-rule="evenodd" d="M20.6305 3.15961C20.068 2.5972 19.305 2.28125 18.5095 2.28125C17.714 2.28125 16.9511 2.5972 16.3885 3.15961L15.6815 3.86761L20.6315 8.81761L21.3375 8.11061C21.6162 7.83203 21.8372 7.50129 21.988 7.13728C22.1388 6.77327 22.2164 6.38312 22.2164 5.98911C22.2164 5.5951 22.1388 5.20495 21.988 4.84094C21.8372 4.47693 21.6162 4.14619 21.3375 3.86761L20.6305 3.15961ZM19.2165 10.2316L14.2665 5.28161L5.17654 14.3726C4.97762 14.5716 4.83866 14.8224 4.77554 15.0966L3.74654 19.5516C3.7082 19.717 3.71259 19.8894 3.75932 20.0526C3.80604 20.2159 3.89355 20.3645 4.0136 20.4846C4.13365 20.6046 4.28228 20.6921 4.4455 20.7388C4.60872 20.7856 4.78115 20.79 4.94654 20.7516L9.40254 19.7236C9.67634 19.6603 9.92686 19.5214 10.1255 19.3226L19.2165 10.2316Z" fill="black" fill-opacity="0.2"/>
<path fill-rule="evenodd" clip-rule="evenodd" d="M20.6305 3.15961C20.068 2.5972 19.305 2.28125 18.5095 2.28125C17.714 2.28125 16.9511 2.5972 16.3885 3.15961L15.6815 3.86761L20.6315 8.81761L21.3375 8.11061C21.6162 7.83203 21.8372 7.50129 21.988 7.13728C22.1388 6.77327 22.2164 6.38312 22.2164 5.98911C22.2164 5.5951 22.1388 5.20495 21.988 4.84094C21.8372 4.47693 21.6162 4.14619 21.3375 3.86761L20.6305 3.15961ZM19.2165 10.2316L14.2665 5.28161L5.17654 14.3726C4.97762 14.5716 4.83866 14.8224 4.77554 15.0966L3.74654 19.5516C3.7082 19.717 3.71259 19.8894 3.75932 20.0526C3.80604 20.2159 3.89355 20.3645 4.0136 20.4846C4.13365 20.6046 4.28228 20.6921 4.4455 20.7388C4.60872 20.7856 4.78115 20.79 4.94654 20.7516L9.40254 19.7236C9.67634 19.6603 9.92686 19.5214 10.1255 19.3226L19.2165 10.2316Z" fill="black" fill-opacity="0.2"/>
<path fill-rule="evenodd" clip-rule="evenodd" d="M20.6305 3.15961C20.068 2.5972 19.305 2.28125 18.5095 2.28125C17.714 2.28125 16.9511 2.5972 16.3885 3.15961L15.6815 3.86761L20.6315 8.81761L21.3375 8.11061C21.6162 7.83203 21.8372 7.50129 21.988 7.13728C22.1388 6.77327 22.2164 6.38312 22.2164 5.98911C22.2164 5.5951 22.1388 5.20495 21.988 4.84094C21.8372 4.47693 21.6162 4.14619 21.3375 3.86761L20.6305 3.15961ZM19.2165 10.2316L14.2665 5.28161L5.17654 14.3726C4.97762 14.5716 4.83866 14.8224 4.77554 15.0966L3.74654 19.5516C3.7082 19.717 3.71259 19.8894 3.75932 20.0526C3.80604 20.2159 3.89355 20.3645 4.0136 20.4846C4.13365 20.6046 4.28228 20.6921 4.4455 20.7388C4.60872 20.7856 4.78115 20.79 4.94654 20.7516L9.40254 19.7236C9.67634 19.6603 9.92686 19.5214 10.1255 19.3226L19.2165 10.2316Z" fill="black" fill-opacity="0.2"/>
<path fill-rule="evenodd" clip-rule="evenodd" d="M20.6305 3.15961C20.068 2.5972 19.305 2.28125 18.5095 2.28125C17.714 2.28125 16.9511 2.5972 16.3885 3.15961L15.6815 3.86761L20.6315 8.81761L21.3375 8.11061C21.6162 7.83203 21.8372 7.50129 21.988 7.13728C22.1388 6.77327 22.2164 6.38312 22.2164 5.98911C22.2164 5.5951 22.1388 5.20495 21.988 4.84094C21.8372 4.47693 21.6162 4.14619 21.3375 3.86761L20.6305 3.15961ZM19.2165 10.2316L14.2665 5.28161L5.17654 14.3726C4.97762 14.5716 4.83866 14.8224 4.77554 15.0966L3.74654 19.5516C3.7082 19.717 3.71259 19.8894 3.75932 20.0526C3.80604 20.2159 3.89355 20.3645 4.0136 20.4846C4.13365 20.6046 4.28228 20.6921 4.4455 20.7388C4.60872 20.7856 4.78115 20.79 4.94654 20.7516L9.40254 19.7236C9.67634 19.6603 9.92686 19.5214 10.1255 19.3226L19.2165 10.2316Z" fill="black" fill-opacity="0.2"/>
<path fill-rule="evenodd" clip-rule="evenodd" d="M20.6305 3.15961C20.068 2.5972 19.305 2.28125 18.5095 2.28125C17.714 2.28125 16.9511 2.5972 16.3885 3.15961L15.6815 3.86761L20.6315 8.81761L21.3375 8.11061C21.6162 7.83203 21.8372 7.50129 21.988 7.13728C22.1388 6.77327 22.2164 6.38312 22.2164 5.98911C22.2164 5.5951 22.1388 5.20495 21.988 4.84094C21.8372 4.47693 21.6162 4.14619 21.3375 3.86761L20.6305 3.15961ZM19.2165 10.2316L14.2665 5.28161L5.17654 14.3726C4.97762 14.5716 4.83866 14.8224 4.77554 15.0966L3.74654 19.5516C3.7082 19.717 3.71259 19.8894 3.75932 20.0526C3.80604 20.2159 3.89355 20.3645 4.0136 20.4846C4.13365 20.6046 4.28228 20.6921 4.4455 20.7388C4.60872 20.7856 4.78115 20.79 4.94654 20.7516L9.40254 19.7236C9.67634 19.6603 9.92686 19.5214 10.1255 19.3226L19.2165 10.2316Z" fill="black" fill-opacity="0.2"/>
<path fill-rule="evenodd" clip-rule="evenodd" d="M20.6305 3.15961C20.068 2.5972 19.305 2.28125 18.5095 2.28125C17.714 2.28125 16.9511 2.5972 16.3885 3.15961L15.6815 3.86761L20.6315 8.81761L21.3375 8.11061C21.6162 7.83203 21.8372 7.50129 21.988 7.13728C22.1388 6.77327 22.2164 6.38312 22.2164 5.98911C22.2164 5.5951 22.1388 5.20495 21.988 4.84094C21.8372 4.47693 21.6162 4.14619 21.3375 3.86761L20.6305 3.15961ZM19.2165 10.2316L14.2665 5.28161L5.17654 14.3726C4.97762 14.5716 4.83866 14.8224 4.77554 15.0966L3.74654 19.5516C3.7082 19.717 3.71259 19.8894 3.75932 20.0526C3.80604 20.2159 3.89355 20.3645 4.0136 20.4846C4.13365 20.6046 4.28228 20.6921 4.4455 20.7388C4.60872 20.7856 4.78115 20.79 4.94654 20.7516L9.40254 19.7236C9.67634 19.6603 9.92686 19.5214 10.1255 19.3226L19.2165 10.2316Z" fill="black" fill-opacity="0.2"/>
<path fill-rule="evenodd" clip-rule="evenodd" d="M20.6305 3.15961C20.068 2.5972 19.305 2.28125 18.5095 2.28125C17.714 2.28125 16.9511 2.5972 16.3885 3.15961L15.6815 3.86761L20.6315 8.81761L21.3375 8.11061C21.6162 7.83203 21.8372 7.50129 21.988 7.13728C22.1388 6.77327 22.2164 6.38312 22.2164 5.98911C22.2164 5.5951 22.1388 5.20495 21.988 4.84094C21.8372 4.47693 21.6162 4.14619 21.3375 3.86761L20.6305 3.15961ZM19.2165 10.2316L14.2665 5.28161L5.17654 14.3726C4.97762 14.5716 4.83866 14.8224 4.77554 15.0966L3.74654 19.5516C3.7082 19.717 3.71259 19.8894 3.75932 20.0526C3.80604 20.2159 3.89355 20.3645 4.0136 20.4846C4.13365 20.6046 4.28228 20.6921 4.4455 20.7388C4.60872 20.7856 4.78115 20.79 4.94654 20.7516L9.40254 19.7236C9.67634 19.6603 9.92686 19.5214 10.1255 19.3226L19.2165 10.2316Z" fill="black" fill-opacity="0.2"/>
<path fill-rule="evenodd" clip-rule="evenodd" d="M20.6305 3.15961C20.068 2.5972 19.305 2.28125 18.5095 2.28125C17.714 2.28125 16.9511 2.5972 16.3885 3.15961L15.6815 3.86761L20.6315 8.81761L21.3375 8.11061C21.6162 7.83203 21.8372 7.50129 21.988 7.13728C22.1388 6.77327 22.2164 6.38312 22.2164 5.98911C22.2164 5.5951 22.1388 5.20495 21.988 4.84094C21.8372 4.47693 21.6162 4.14619 21.3375 3.86761L20.6305 3.15961ZM19.2165 10.2316L14.2665 5.28161L5.17654 14.3726C4.97762 14.5716 4.83866 14.8224 4.77554 15.0966L3.74654 19.5516C3.7082 19.717 3.71259 19.8894 3.75932 20.0526C3.80604 20.2159 3.89355 20.3645 4.0136 20.4846C4.13365 20.6046 4.28228 20.6921 4.4455 20.7388C4.60872 20.7856 4.78115 20.79 4.94654 20.7516L9.40254 19.7236C9.67634 19.6603 9.92686 19.5214 10.1255 19.3226L19.2165 10.2316Z" fill="black" fill-opacity="0.2"/>
<path fill-rule="evenodd" clip-rule="evenodd" d="M20.6305 3.15961C20.068 2.5972 19.305 2.28125 18.5095 2.28125C17.714 2.28125 16.9511 2.5972 16.3885 3.15961L15.6815 3.86761L20.6315 8.81761L21.3375 8.11061C21.6162 7.83203 21.8372 7.50129 21.988 7.13728C22.1388 6.77327 22.2164 6.38312 22.2164 5.98911C22.2164 5.5951 22.1388 5.20495 21.988 4.84094C21.8372 4.47693 21.6162 4.14619 21.3375 3.86761L20.6305 3.15961ZM19.2165 10.2316L14.2665 5.28161L5.17654 14.3726C4.97762 14.5716 4.83866 14.8224 4.77554 15.0966L3.74654 19.5516C3.7082 19.717 3.71259 19.8894 3.75932 20.0526C3.80604 20.2159 3.89355 20.3645 4.0136 20.4846C4.13365 20.6046 4.28228 20.6921 4.4455 20.7388C4.60872 20.7856 4.78115 20.79 4.94654 20.7516L9.40254 19.7236C9.67634 19.6603 9.92686 19.5214 10.1255 19.3226L19.2165 10.2316Z" fill="black" fill-opacity="0.2"/>
<path fill-rule="evenodd" clip-rule="evenodd" d="M20.6305 3.15961C20.068 2.5972 19.305 2.28125 18.5095 2.28125C17.714 2.28125 16.9511 2.5972 16.3885 3.15961L15.6815 3.86761L20.6315 8.81761L21.3375 8.11061C21.6162 7.83203 21.8372 7.50129 21.988 7.13728C22.1388 6.77327 22.2164 6.38312 22.2164 5.98911C22.2164 5.5951 22.1388 5.20495 21.988 4.84094C21.8372 4.47693 21.6162 4.14619 21.3375 3.86761L20.6305 3.15961ZM19.2165 10.2316L14.2665 5.28161L5.17654 14.3726C4.97762 14.5716 4.83866 14.8224 4.77554 15.0966L3.74654 19.5516C3.7082 19.717 3.71259 19.8894 3.75932 20.0526C3.80604 20.2159 3.89355 20.3645 4.0136 20.4846C4.13365 20.6046 4.28228 20.6921 4.4455 20.7388C4.60872 20.7856 4.78115 20.79 4.94654 20.7516L9.40254 19.7236C9.67634 19.6603 9.92686 19.5214 10.1255 19.3226L19.2165 10.2316Z" fill="black" fill-opacity="0.2"/>
</svg>
