<svg width="24" height="24" viewBox="0 0 24 24" fill="none" xmlns="http://www.w3.org/2000/svg">
<path fill-rule="evenodd" clip-rule="evenodd" d="M20.131 3.15961C19.5684 2.5972 18.8055 2.28125 18.01 2.28125C17.2145 2.28125 16.4516 2.5972 15.889 3.15961L15.182 3.86761L20.132 8.81761L20.838 8.11061C21.1167 7.83203 21.3377 7.50129 21.4885 7.13728C21.6393 6.77327 21.7169 6.38312 21.7169 5.98911C21.7169 5.5951 21.6393 5.20495 21.4885 4.84094C21.3377 4.47693 21.1167 4.14619 20.838 3.86761L20.131 3.15961ZM18.717 10.2316L13.767 5.28161L4.67703 14.3726C4.47811 14.5716 4.33915 14.8224 4.27603 15.0966L3.24703 19.5516C3.20868 19.717 3.21308 19.8894 3.2598 20.0526C3.30653 20.2159 3.39404 20.3645 3.51408 20.4846C3.63413 20.6046 3.78277 20.6921 3.94599 20.7388C4.10921 20.7856 4.28164 20.79 4.44703 20.7516L8.90303 19.7236C9.17683 19.6603 9.42735 19.5214 9.62603 19.3226L18.717 10.2316Z" fill="#152147"/>
<path fill-rule="evenodd" clip-rule="evenodd" d="M20.131 3.15961C19.5684 2.5972 18.8055 2.28125 18.01 2.28125C17.2145 2.28125 16.4516 2.5972 15.889 3.15961L15.182 3.86761L20.132 8.81761L20.838 8.11061C21.1167 7.83203 21.3377 7.50129 21.4885 7.13728C21.6393 6.77327 21.7169 6.38312 21.7169 5.98911C21.7169 5.5951 21.6393 5.20495 21.4885 4.84094C21.3377 4.47693 21.1167 4.14619 20.838 3.86761L20.131 3.15961ZM18.717 10.2316L13.767 5.28161L4.67703 14.3726C4.47811 14.5716 4.33915 14.8224 4.27603 15.0966L3.24703 19.5516C3.20868 19.717 3.21308 19.8894 3.2598 20.0526C3.30653 20.2159 3.39404 20.3645 3.51408 20.4846C3.63413 20.6046 3.78277 20.6921 3.94599 20.7388C4.10921 20.7856 4.28164 20.79 4.44703 20.7516L8.90303 19.7236C9.17683 19.6603 9.42735 19.5214 9.62603 19.3226L18.717 10.2316Z" fill="black" fill-opacity="0.2"/>
<path fill-rule="evenodd" clip-rule="evenodd" d="M20.131 3.15961C19.5684 2.5972 18.8055 2.28125 18.01 2.28125C17.2145 2.28125 16.4516 2.5972 15.889 3.15961L15.182 3.86761L20.132 8.81761L20.838 8.11061C21.1167 7.83203 21.3377 7.50129 21.4885 7.13728C21.6393 6.77327 21.7169 6.38312 21.7169 5.98911C21.7169 5.5951 21.6393 5.20495 21.4885 4.84094C21.3377 4.47693 21.1167 4.14619 20.838 3.86761L20.131 3.15961ZM18.717 10.2316L13.767 5.28161L4.67703 14.3726C4.47811 14.5716 4.33915 14.8224 4.27603 15.0966L3.24703 19.5516C3.20868 19.717 3.21308 19.8894 3.2598 20.0526C3.30653 20.2159 3.39404 20.3645 3.51408 20.4846C3.63413 20.6046 3.78277 20.6921 3.94599 20.7388C4.10921 20.7856 4.28164 20.79 4.44703 20.7516L8.90303 19.7236C9.17683 19.6603 9.42735 19.5214 9.62603 19.3226L18.717 10.2316Z" fill="black" fill-opacity="0.2"/>
<path fill-rule="evenodd" clip-rule="evenodd" d="M20.131 3.15961C19.5684 2.5972 18.8055 2.28125 18.01 2.28125C17.2145 2.28125 16.4516 2.5972 15.889 3.15961L15.182 3.86761L20.132 8.81761L20.838 8.11061C21.1167 7.83203 21.3377 7.50129 21.4885 7.13728C21.6393 6.77327 21.7169 6.38312 21.7169 5.98911C21.7169 5.5951 21.6393 5.20495 21.4885 4.84094C21.3377 4.47693 21.1167 4.14619 20.838 3.86761L20.131 3.15961ZM18.717 10.2316L13.767 5.28161L4.67703 14.3726C4.47811 14.5716 4.33915 14.8224 4.27603 15.0966L3.24703 19.5516C3.20868 19.717 3.21308 19.8894 3.2598 20.0526C3.30653 20.2159 3.39404 20.3645 3.51408 20.4846C3.63413 20.6046 3.78277 20.6921 3.94599 20.7388C4.10921 20.7856 4.28164 20.79 4.44703 20.7516L8.90303 19.7236C9.17683 19.6603 9.42735 19.5214 9.62603 19.3226L18.717 10.2316Z" fill="black" fill-opacity="0.2"/>
<path fill-rule="evenodd" clip-rule="evenodd" d="M20.131 3.15961C19.5684 2.5972 18.8055 2.28125 18.01 2.28125C17.2145 2.28125 16.4516 2.5972 15.889 3.15961L15.182 3.86761L20.132 8.81761L20.838 8.11061C21.1167 7.83203 21.3377 7.50129 21.4885 7.13728C21.6393 6.77327 21.7169 6.38312 21.7169 5.98911C21.7169 5.5951 21.6393 5.20495 21.4885 4.84094C21.3377 4.47693 21.1167 4.14619 20.838 3.86761L20.131 3.15961ZM18.717 10.2316L13.767 5.28161L4.67703 14.3726C4.47811 14.5716 4.33915 14.8224 4.27603 15.0966L3.24703 19.5516C3.20868 19.717 3.21308 19.8894 3.2598 20.0526C3.30653 20.2159 3.39404 20.3645 3.51408 20.4846C3.63413 20.6046 3.78277 20.6921 3.94599 20.7388C4.10921 20.7856 4.28164 20.79 4.44703 20.7516L8.90303 19.7236C9.17683 19.6603 9.42735 19.5214 9.62603 19.3226L18.717 10.2316Z" fill="black" fill-opacity="0.2"/>
<path fill-rule="evenodd" clip-rule="evenodd" d="M20.131 3.15961C19.5684 2.5972 18.8055 2.28125 18.01 2.28125C17.2145 2.28125 16.4516 2.5972 15.889 3.15961L15.182 3.86761L20.132 8.81761L20.838 8.11061C21.1167 7.83203 21.3377 7.50129 21.4885 7.13728C21.6393 6.77327 21.7169 6.38312 21.7169 5.98911C21.7169 5.5951 21.6393 5.20495 21.4885 4.84094C21.3377 4.47693 21.1167 4.14619 20.838 3.86761L20.131 3.15961ZM18.717 10.2316L13.767 5.28161L4.67703 14.3726C4.47811 14.5716 4.33915 14.8224 4.27603 15.0966L3.24703 19.5516C3.20868 19.717 3.21308 19.8894 3.2598 20.0526C3.30653 20.2159 3.39404 20.3645 3.51408 20.4846C3.63413 20.6046 3.78277 20.6921 3.94599 20.7388C4.10921 20.7856 4.28164 20.79 4.44703 20.7516L8.90303 19.7236C9.17683 19.6603 9.42735 19.5214 9.62603 19.3226L18.717 10.2316Z" fill="black" fill-opacity="0.2"/>
<path fill-rule="evenodd" clip-rule="evenodd" d="M20.131 3.15961C19.5684 2.5972 18.8055 2.28125 18.01 2.28125C17.2145 2.28125 16.4516 2.5972 15.889 3.15961L15.182 3.86761L20.132 8.81761L20.838 8.11061C21.1167 7.83203 21.3377 7.50129 21.4885 7.13728C21.6393 6.77327 21.7169 6.38312 21.7169 5.98911C21.7169 5.5951 21.6393 5.20495 21.4885 4.84094C21.3377 4.47693 21.1167 4.14619 20.838 3.86761L20.131 3.15961ZM18.717 10.2316L13.767 5.28161L4.67703 14.3726C4.47811 14.5716 4.33915 14.8224 4.27603 15.0966L3.24703 19.5516C3.20868 19.717 3.21308 19.8894 3.2598 20.0526C3.30653 20.2159 3.39404 20.3645 3.51408 20.4846C3.63413 20.6046 3.78277 20.6921 3.94599 20.7388C4.10921 20.7856 4.28164 20.79 4.44703 20.7516L8.90303 19.7236C9.17683 19.6603 9.42735 19.5214 9.62603 19.3226L18.717 10.2316Z" fill="black" fill-opacity="0.2"/>
<path fill-rule="evenodd" clip-rule="evenodd" d="M20.131 3.15961C19.5684 2.5972 18.8055 2.28125 18.01 2.28125C17.2145 2.28125 16.4516 2.5972 15.889 3.15961L15.182 3.86761L20.132 8.81761L20.838 8.11061C21.1167 7.83203 21.3377 7.50129 21.4885 7.13728C21.6393 6.77327 21.7169 6.38312 21.7169 5.98911C21.7169 5.5951 21.6393 5.20495 21.4885 4.84094C21.3377 4.47693 21.1167 4.14619 20.838 3.86761L20.131 3.15961ZM18.717 10.2316L13.767 5.28161L4.67703 14.3726C4.47811 14.5716 4.33915 14.8224 4.27603 15.0966L3.24703 19.5516C3.20868 19.717 3.21308 19.8894 3.2598 20.0526C3.30653 20.2159 3.39404 20.3645 3.51408 20.4846C3.63413 20.6046 3.78277 20.6921 3.94599 20.7388C4.10921 20.7856 4.28164 20.79 4.44703 20.7516L8.90303 19.7236C9.17683 19.6603 9.42735 19.5214 9.62603 19.3226L18.717 10.2316Z" fill="black" fill-opacity="0.2"/>
<path fill-rule="evenodd" clip-rule="evenodd" d="M20.131 3.15961C19.5684 2.5972 18.8055 2.28125 18.01 2.28125C17.2145 2.28125 16.4516 2.5972 15.889 3.15961L15.182 3.86761L20.132 8.81761L20.838 8.11061C21.1167 7.83203 21.3377 7.50129 21.4885 7.13728C21.6393 6.77327 21.7169 6.38312 21.7169 5.98911C21.7169 5.5951 21.6393 5.20495 21.4885 4.84094C21.3377 4.47693 21.1167 4.14619 20.838 3.86761L20.131 3.15961ZM18.717 10.2316L13.767 5.28161L4.67703 14.3726C4.47811 14.5716 4.33915 14.8224 4.27603 15.0966L3.24703 19.5516C3.20868 19.717 3.21308 19.8894 3.2598 20.0526C3.30653 20.2159 3.39404 20.3645 3.51408 20.4846C3.63413 20.6046 3.78277 20.6921 3.94599 20.7388C4.10921 20.7856 4.28164 20.79 4.44703 20.7516L8.90303 19.7236C9.17683 19.6603 9.42735 19.5214 9.62603 19.3226L18.717 10.2316Z" fill="black" fill-opacity="0.2"/>
<path fill-rule="evenodd" clip-rule="evenodd" d="M20.131 3.15961C19.5684 2.5972 18.8055 2.28125 18.01 2.28125C17.2145 2.28125 16.4516 2.5972 15.889 3.15961L15.182 3.86761L20.132 8.81761L20.838 8.11061C21.1167 7.83203 21.3377 7.50129 21.4885 7.13728C21.6393 6.77327 21.7169 6.38312 21.7169 5.98911C21.7169 5.5951 21.6393 5.20495 21.4885 4.84094C21.3377 4.47693 21.1167 4.14619 20.838 3.86761L20.131 3.15961ZM18.717 10.2316L13.767 5.28161L4.67703 14.3726C4.47811 14.5716 4.33915 14.8224 4.27603 15.0966L3.24703 19.5516C3.20868 19.717 3.21308 19.8894 3.2598 20.0526C3.30653 20.2159 3.39404 20.3645 3.51408 20.4846C3.63413 20.6046 3.78277 20.6921 3.94599 20.7388C4.10921 20.7856 4.28164 20.79 4.44703 20.7516L8.90303 19.7236C9.17683 19.6603 9.42735 19.5214 9.62603 19.3226L18.717 10.2316Z" fill="black" fill-opacity="0.2"/>
<path fill-rule="evenodd" clip-rule="evenodd" d="M20.131 3.15961C19.5684 2.5972 18.8055 2.28125 18.01 2.28125C17.2145 2.28125 16.4516 2.5972 15.889 3.15961L15.182 3.86761L20.132 8.81761L20.838 8.11061C21.1167 7.83203 21.3377 7.50129 21.4885 7.13728C21.6393 6.77327 21.7169 6.38312 21.7169 5.98911C21.7169 5.5951 21.6393 5.20495 21.4885 4.84094C21.3377 4.47693 21.1167 4.14619 20.838 3.86761L20.131 3.15961ZM18.717 10.2316L13.767 5.28161L4.67703 14.3726C4.47811 14.5716 4.33915 14.8224 4.27603 15.0966L3.24703 19.5516C3.20868 19.717 3.21308 19.8894 3.2598 20.0526C3.30653 20.2159 3.39404 20.3645 3.51408 20.4846C3.63413 20.6046 3.78277 20.6921 3.94599 20.7388C4.10921 20.7856 4.28164 20.79 4.44703 20.7516L8.90303 19.7236C9.17683 19.6603 9.42735 19.5214 9.62603 19.3226L18.717 10.2316Z" fill="black" fill-opacity="0.2"/>
<path fill-rule="evenodd" clip-rule="evenodd" d="M20.131 3.15961C19.5684 2.5972 18.8055 2.28125 18.01 2.28125C17.2145 2.28125 16.4516 2.5972 15.889 3.15961L15.182 3.86761L20.132 8.81761L20.838 8.11061C21.1167 7.83203 21.3377 7.50129 21.4885 7.13728C21.6393 6.77327 21.7169 6.38312 21.7169 5.98911C21.7169 5.5951 21.6393 5.20495 21.4885 4.84094C21.3377 4.47693 21.1167 4.14619 20.838 3.86761L20.131 3.15961ZM18.717 10.2316L13.767 5.28161L4.67703 14.3726C4.47811 14.5716 4.33915 14.8224 4.27603 15.0966L3.24703 19.5516C3.20868 19.717 3.21308 19.8894 3.2598 20.0526C3.30653 20.2159 3.39404 20.3645 3.51408 20.4846C3.63413 20.6046 3.78277 20.6921 3.94599 20.7388C4.10921 20.7856 4.28164 20.79 4.44703 20.7516L8.90303 19.7236C9.17683 19.6603 9.42735 19.5214 9.62603 19.3226L18.717 10.2316Z" fill="black" fill-opacity="0.2"/>
</svg>
