<svg width="24" height="24" viewBox="0 0 24 24" fill="none" xmlns="http://www.w3.org/2000/svg">
<path d="M14.748 17.205H9.872C9.541 18.653 8.27 19.75 6.724 19.75C5.179 19.75 3.908 18.653 3.576 17.204H3C2.80109 17.204 2.61032 17.125 2.46967 16.9843C2.32902 16.8437 2.25 16.6529 2.25 16.454V6C2.25 5.034 3.034 4.25 4 4.25H13.793C14.76 4.25 15.543 5.034 15.543 6V7.432H17.053C17.795 7.432 18.505 7.731 19.023 8.262L21.537 10.84C21.6737 10.9802 21.7501 11.1682 21.75 11.364V16.454C21.7503 16.6454 21.6775 16.8296 21.5465 16.969C21.4154 17.1085 21.236 17.1925 21.045 17.204C20.714 18.652 19.442 19.75 17.897 19.75C16.352 19.75 15.08 18.654 14.748 17.205ZM6.724 14.658C5.784 14.658 4.991 15.444 4.991 16.453C4.991 17.463 5.785 18.249 6.724 18.249C7.663 18.249 8.457 17.463 8.457 16.453C8.457 15.444 7.664 14.658 6.724 14.658ZM17.897 14.658C16.957 14.658 16.164 15.444 16.164 16.453C16.164 17.463 16.957 18.249 17.897 18.249C18.836 18.249 19.629 17.463 19.629 16.453C19.629 15.444 18.836 14.658 17.897 14.658Z" fill="#1E1E1E"/>
</svg>
