<svg width="24" height="24" viewBox="0 0 24 24" fill="none" xmlns="http://www.w3.org/2000/svg">
<path d="M9.61245 3.18493C8.02095 3.18493 5.58095 4.10343 6.42945 9.79143C6.44278 9.87743 6.45862 9.97026 6.47695 10.0699C6.63195 10.9254 6.87095 12.2499 5.34995 13.3419C6.38445 14.1909 7.85795 15.0394 9.64845 15.4069C9.5776 15.813 9.48884 16.2157 9.38245 16.6139C9.23695 17.1479 8.93195 17.5264 8.38695 17.6879C7.90695 17.8299 7.40395 17.9449 6.88895 18.0629C6.75628 18.0929 6.62295 18.1236 6.48895 18.1549C5.84645 18.3044 5.19145 18.4699 4.61095 18.7039C4.02895 18.9389 3.48795 19.2554 3.09695 19.7274C2.69895 20.2089 2.48595 20.8159 2.50045 21.5749C2.50545 21.8109 2.70745 21.9999 2.95545 21.9999H21.0445C21.2925 21.9999 21.4945 21.8109 21.4995 21.5749C21.514 20.8159 21.3015 20.2089 20.903 19.7274C20.5125 19.2554 19.971 18.9384 19.3895 18.7039C18.8085 18.4694 18.1535 18.3039 17.5105 18.1544L17.1115 18.0629C16.596 17.9449 16.093 17.8299 15.613 17.6879C15.068 17.5264 14.763 17.1479 14.6175 16.6139C14.4903 16.1398 14.3892 15.6591 14.3145 15.1739C15.6835 14.7619 17.1385 14.0214 18.65 12.8389L18.643 12.8319C17.9335 12.1529 16.6035 10.8799 16.509 7.85793C16.509 3.69693 13.856 0.0399275 9.61245 3.18493Z" fill="#3270FF" stroke="#3270FF" stroke-width="2" stroke-linejoin="round"/>
</svg>
