<svg width="25" height="24" viewBox="0 0 25 24" fill="none" xmlns="http://www.w3.org/2000/svg">
<path d="M10.1127 3.18493C8.52119 3.18493 6.08119 4.10343 6.92969 9.79143C6.94303 9.87743 6.95886 9.97026 6.97719 10.0699C7.13219 10.9254 7.37119 12.2499 5.85019 13.3419C6.88469 14.1909 8.35819 15.0394 10.1487 15.4069C10.0778 15.813 9.98909 16.2157 9.88269 16.6139C9.73719 17.1479 9.43219 17.5264 8.88719 17.6879C8.40719 17.8299 7.90419 17.9449 7.38919 18.0629C7.25653 18.0929 7.12319 18.1236 6.98919 18.1549C6.34669 18.3044 5.69169 18.4699 5.11119 18.7039C4.52919 18.9389 3.98819 19.2554 3.59719 19.7274C3.19919 20.2089 2.98619 20.8159 3.00069 21.5749C3.00569 21.8109 3.20769 21.9999 3.45569 21.9999H21.5447C21.7927 21.9999 21.9947 21.8109 21.9997 21.5749C22.0142 20.8159 21.8017 20.2089 21.4032 19.7274C21.0127 19.2554 20.4712 18.9384 19.8897 18.7039C19.3087 18.4694 18.6537 18.3039 18.0107 18.1544L17.6117 18.0629C17.0962 17.9449 16.5932 17.8299 16.1132 17.6879C15.5682 17.5264 15.2632 17.1479 15.1177 16.6139C14.9906 16.1398 14.8894 15.6591 14.8147 15.1739C16.1837 14.7619 17.6387 14.0214 19.1502 12.8389L19.1432 12.8319C18.4337 12.1529 17.1037 10.8799 17.0092 7.85793C17.0092 3.69693 14.3562 0.0399275 10.1127 3.18493Z" fill="#3270FF" stroke="#3270FF" stroke-width="2" stroke-linejoin="round"/>
</svg>
