<svg width="17" height="18" viewBox="0 0 17 18" fill="none" xmlns="http://www.w3.org/2000/svg">
<rect x="0.5" y="1" width="16" height="16" rx="1.5" stroke="#202020"/>
<path d="M5.41406 13.5L4.48828 9.78516H3.22266V8.71875H4.22461L3.30469 5.01562H4.74609L5.57227 8.71875H6.89062L7.78125 5.01562H9.17578L10.0664 8.71875H11.3965L12.2227 5.01562H13.6523L12.7324 8.71875H13.7344V9.78516H12.4688L11.543 13.5H10.043L9.12891 9.78516H7.82812L6.91406 13.5H5.41406ZM5.80664 9.78516L6.16406 11.3906H6.24609L6.63281 9.78516H5.80664ZM8.08594 8.71875H8.87109L8.50781 7.24219H8.44922L8.08594 8.71875ZM10.3242 9.78516L10.7109 11.4023H10.793L11.1562 9.78516H10.3242Z" fill="#202020"/>
</svg>
