<svg width="221" height="36" viewBox="0 0 221 36" fill="none" xmlns="http://www.w3.org/2000/svg">
<path d="M7.00766 35.52C6.26099 35.44 5.51432 35.2267 4.76766 34.88C4.04766 34.5333 3.39432 34.0667 2.80766 33.48C2.22099 32.8933 1.72766 32.1867 1.32766 31.36C0.954323 30.5333 0.727656 29.6 0.647656 28.56C0.434323 25.0933 0.34099 21.7333 0.367656 18.48C0.42099 15.2267 0.527656 11.84 0.687656 8.32C0.74099 7.25333 0.954323 6.30667 1.32766 5.48C1.72766 4.65333 2.22099 3.94667 2.80766 3.36C3.39432 2.77333 4.04766 2.32 4.76766 2C5.51432 1.65333 6.26099 1.44 7.00766 1.36C8.02099 1.25333 9.10099 1.17333 10.2477 1.12C11.421 1.04 12.6077 0.999999 13.8077 0.999999C16.0743 0.973332 18.1543 1.26667 20.0477 1.88C21.9677 2.49333 23.621 3.48 25.0077 4.84C26.3943 6.17333 27.4743 7.90667 28.2477 10.04C29.021 12.1733 29.4077 14.7467 29.4077 17.76C29.4077 20.7733 29.021 23.4133 28.2477 25.68C27.4743 27.92 26.3943 29.8 25.0077 31.32C23.6477 32.8133 22.0077 33.9467 20.0877 34.72C18.1943 35.4933 16.1277 35.88 13.8877 35.88C12.6877 35.88 11.501 35.84 10.3277 35.76C9.15432 35.7067 8.04766 35.6267 7.00766 35.52ZM13.6077 20.16C13.5277 20.32 13.5277 20.4667 13.6077 20.6C13.7143 20.7333 13.8477 20.84 14.0077 20.92C14.1677 20.9733 14.341 20.9867 14.5277 20.96C14.7143 20.9067 14.8743 20.7867 15.0077 20.6C15.541 19.8267 15.901 18.9333 16.0877 17.92C16.301 16.9067 16.421 15.9067 16.4477 14.92C16.4477 14.68 16.3677 14.5067 16.2077 14.4C16.0743 14.2667 15.9143 14.2 15.7277 14.2C15.5677 14.1733 15.4077 14.2 15.2477 14.28C15.1143 14.36 15.0477 14.48 15.0477 14.64C14.9943 15.6267 14.861 16.56 14.6477 17.44C14.4343 18.2933 14.0877 19.2 13.6077 20.16ZM47.6064 35.88C44.8331 35.88 42.4464 35.4667 40.4464 34.64C38.4464 33.84 36.7931 32.6933 35.4864 31.2C34.2064 29.68 33.2464 27.8533 32.6064 25.72C31.9931 23.56 31.6864 21.1333 31.6864 18.44C31.6864 15.7467 31.9664 13.3333 32.5264 11.2C33.0864 9.04 33.9931 7.21333 35.2464 5.72C36.4997 4.2 38.1397 3.04 40.1664 2.24C42.1931 1.41333 44.6731 0.999999 47.6064 0.999999C50.5397 0.999999 53.0197 1.41333 55.0464 2.24C57.0731 3.04 58.7131 4.2 59.9664 5.72C61.2197 7.21333 62.1264 9.04 62.6864 11.2C63.2464 13.3333 63.5264 15.7467 63.5264 18.44C63.5264 21.1333 63.2064 23.56 62.5664 25.72C61.9531 27.8533 60.9931 29.68 59.6864 31.2C58.4064 32.6933 56.7531 33.84 54.7264 34.64C52.7264 35.4667 50.3531 35.88 47.6064 35.88ZM46.1664 21.04C46.0597 21.1733 46.0464 21.3067 46.1264 21.44C46.2064 21.5733 46.3264 21.6667 46.4864 21.72C46.6464 21.7733 46.8197 21.7867 47.0064 21.76C47.2197 21.7333 47.3931 21.64 47.5264 21.48C48.0864 20.68 48.4597 19.7733 48.6464 18.76C48.8331 17.7467 48.9397 16.7333 48.9664 15.72C48.9664 15.48 48.8997 15.3067 48.7664 15.2C48.6331 15.0933 48.4731 15.04 48.2864 15.04C48.1264 15.0133 47.9664 15.04 47.8064 15.12C47.6464 15.2 47.5664 15.32 47.5664 15.48C47.5131 16.4667 47.3797 17.4 47.1664 18.28C46.9531 19.16 46.6197 20.08 46.1664 21.04ZM77.7889 24.28C77.7356 25.2667 77.6689 26.2533 77.5889 27.24C77.5089 28.2267 77.4289 29.2133 77.3489 30.2C77.2689 30.9467 77.1089 31.64 76.8689 32.28C76.6289 32.9467 76.2822 33.52 75.8289 34C75.4022 34.48 74.8689 34.8533 74.2289 35.12C73.6156 35.4133 72.8956 35.56 72.0689 35.56C71.2156 35.56 70.4689 35.4133 69.8289 35.12C69.2156 34.8533 68.6822 34.48 68.2289 34C67.8022 33.52 67.4689 32.9467 67.2289 32.28C66.9889 31.64 66.8289 30.9467 66.7489 30.2C66.3489 26.3867 66.1489 22.5067 66.1489 18.56C66.1756 14.6133 66.3756 10.7333 66.7489 6.92C66.8556 5.96 67.0822 5.14667 67.4289 4.48C67.7756 3.81333 68.2156 3.26666 68.7489 2.84C69.2822 2.41333 69.8822 2.09333 70.5489 1.88C71.2422 1.64 71.9756 1.46667 72.7489 1.36C73.6822 1.25333 74.6289 1.17333 75.5889 1.12C76.5756 1.04 77.5356 0.999999 78.4689 0.999999C80.3356 0.973332 82.1756 1.08 83.9889 1.32C85.8289 1.56 87.4689 2.08 88.9089 2.88C90.3756 3.68 91.5489 4.85333 92.4289 6.4C93.3356 7.94667 93.7889 10.0133 93.7889 12.6C93.7889 14.4133 93.5756 15.96 93.1489 17.24C92.7489 18.52 92.1756 19.6 91.4289 20.48C90.7089 21.3333 89.8422 22.0267 88.8289 22.56C87.8422 23.0667 86.7489 23.4533 85.5489 23.72C84.3756 23.9867 83.1222 24.16 81.7889 24.24C80.4822 24.2933 79.1489 24.3067 77.7889 24.28ZM77.7889 13.44C79.4422 14.2933 81.2156 14.6267 83.1089 14.44C83.3489 14.4133 83.5089 14.32 83.5889 14.16C83.6956 14 83.7489 13.84 83.7489 13.68C83.7489 13.4933 83.6956 13.3333 83.5889 13.2C83.5089 13.0667 83.3889 13 83.2289 13C82.2422 13.0533 81.3622 13 80.5889 12.84C79.8156 12.68 79.0022 12.4133 78.1489 12.04C77.9889 11.96 77.8422 11.9733 77.7089 12.08C77.5756 12.16 77.4689 12.28 77.3889 12.44C77.3356 12.6 77.3356 12.7867 77.3889 13C77.4422 13.1867 77.5756 13.3333 77.7889 13.44ZM102.711 35.52C101.964 35.44 101.217 35.2267 100.471 34.88C99.7508 34.5333 99.0974 34.0667 98.5108 33.48C97.9241 32.8933 97.4308 32.1867 97.0308 31.36C96.6574 30.5333 96.4308 29.6 96.3508 28.56C96.1374 25.0933 96.0441 21.7333 96.0708 18.48C96.1241 15.2267 96.2308 11.84 96.3908 8.32C96.4441 7.25333 96.6574 6.30667 97.0308 5.48C97.4308 4.65333 97.9241 3.94667 98.5108 3.36C99.0974 2.77333 99.7508 2.32 100.471 2C101.217 1.65333 101.964 1.44 102.711 1.36C103.724 1.25333 104.804 1.17333 105.951 1.12C107.124 1.04 108.311 0.999999 109.511 0.999999C111.777 0.973332 113.857 1.26667 115.751 1.88C117.671 2.49333 119.324 3.48 120.711 4.84C122.097 6.17333 123.177 7.90667 123.951 10.04C124.724 12.1733 125.111 14.7467 125.111 17.76C125.111 20.7733 124.724 23.4133 123.951 25.68C123.177 27.92 122.097 29.8 120.711 31.32C119.351 32.8133 117.711 33.9467 115.791 34.72C113.897 35.4933 111.831 35.88 109.591 35.88C108.391 35.88 107.204 35.84 106.031 35.76C104.857 35.7067 103.751 35.6267 102.711 35.52ZM109.311 20.16C109.231 20.32 109.231 20.4667 109.311 20.6C109.417 20.7333 109.551 20.84 109.711 20.92C109.871 20.9733 110.044 20.9867 110.231 20.96C110.417 20.9067 110.577 20.7867 110.711 20.6C111.244 19.8267 111.604 18.9333 111.791 17.92C112.004 16.9067 112.124 15.9067 112.151 14.92C112.151 14.68 112.071 14.5067 111.911 14.4C111.777 14.2667 111.617 14.2 111.431 14.2C111.271 14.1733 111.111 14.2 110.951 14.28C110.817 14.36 110.751 14.48 110.751 14.64C110.697 15.6267 110.564 16.56 110.351 17.44C110.137 18.2933 109.791 19.2 109.311 20.16ZM139.15 28.76C139.176 29.56 139.123 30.36 138.99 31.16C138.856 31.96 138.576 32.6933 138.15 33.36C137.723 34.0267 137.136 34.56 136.39 34.96C135.643 35.3867 134.696 35.6 133.55 35.6C132.003 35.6 130.723 35.1467 129.71 34.24C128.696 33.3333 128.136 32.1067 128.03 30.56C127.87 26.64 127.79 22.6133 127.79 18.48C127.79 16.08 127.99 13.8533 128.39 11.8C128.79 9.72 129.496 7.90667 130.51 6.36C131.523 4.81333 132.883 3.6 134.59 2.72C136.323 1.84 138.496 1.4 141.11 1.4C143.75 1.4 145.923 1.84 147.63 2.72C149.363 3.6 150.736 4.81333 151.75 6.36C152.763 7.90667 153.47 9.72 153.87 11.8C154.296 13.8533 154.51 16.08 154.51 18.48C154.51 20.5333 154.483 22.5733 154.43 24.6C154.403 26.6 154.336 28.5867 154.23 30.56C154.15 32.1067 153.59 33.3333 152.55 34.24C151.536 35.1467 150.243 35.6 148.67 35.6C147.523 35.6 146.576 35.3867 145.83 34.96C145.11 34.56 144.536 34.0267 144.11 33.36C143.683 32.6933 143.39 31.96 143.23 31.16C143.07 30.3333 143.016 29.5333 143.07 28.76C142.643 28.8667 142.283 28.9467 141.99 29C141.696 29.0533 141.403 29.08 141.11 29.08C140.843 29.08 140.55 29.0533 140.23 29C139.936 28.9467 139.576 28.8667 139.15 28.76ZM144.55 17.84C143.75 17.2267 142.843 16.8267 141.83 16.64C140.843 16.4533 139.843 16.3333 138.83 16.28C138.59 16.28 138.416 16.3467 138.31 16.48C138.203 16.6133 138.136 16.7733 138.11 16.96C138.083 17.1467 138.11 17.32 138.19 17.48C138.296 17.6133 138.43 17.6933 138.59 17.72C139.576 17.7733 140.496 17.9067 141.35 18.12C142.23 18.3333 143.136 18.6933 144.07 19.2C144.203 19.28 144.336 19.28 144.47 19.2C144.603 19.0933 144.71 18.96 144.79 18.8C144.87 18.64 144.896 18.4667 144.87 18.28C144.843 18.0933 144.736 17.9467 144.55 17.84ZM169.395 18.64C169.395 19.52 169.368 20.4667 169.315 21.48C169.288 22.4667 169.248 23.4667 169.195 24.48C169.142 25.4933 169.075 26.4933 168.995 27.48C168.915 28.4667 168.835 29.3867 168.755 30.24C168.675 30.9867 168.515 31.68 168.275 32.32C168.035 32.9867 167.688 33.56 167.235 34.04C166.808 34.52 166.275 34.8933 165.635 35.16C165.022 35.4533 164.302 35.6 163.475 35.6C162.622 35.6 161.875 35.4533 161.235 35.16C160.622 34.8933 160.088 34.52 159.635 34.04C159.208 33.56 158.875 32.9867 158.635 32.32C158.395 31.68 158.235 30.9867 158.155 30.24C157.755 26.4267 157.555 22.5067 157.555 18.48C157.555 14.4533 157.755 10.5333 158.155 6.72C158.235 5.97333 158.395 5.28 158.635 4.64C158.875 4 159.208 3.44 159.635 2.96C160.088 2.48 160.622 2.10667 161.235 1.84C161.875 1.54667 162.622 1.4 163.475 1.4C164.435 1.4 165.248 1.57333 165.915 1.92C166.608 2.26667 167.182 2.74667 167.635 3.36C168.542 4.53333 169.342 5.78666 170.035 7.12C170.755 8.42667 171.448 9.77333 172.115 11.16C172.782 12.52 173.435 13.8933 174.075 15.28C174.742 16.6667 175.462 18 176.235 19.28C176.315 19.44 176.408 19.5467 176.515 19.6C176.648 19.6533 176.755 19.6533 176.835 19.6C176.942 19.52 177.008 19.4133 177.035 19.28C177.088 19.1467 177.062 18.9867 176.955 18.8C176.528 17.9467 176.142 17.2 175.795 16.56C175.448 15.8933 175.062 15.1733 174.635 14.4C174.688 13.0667 174.755 11.7333 174.835 10.4C174.915 9.04 175.008 7.81333 175.115 6.72C175.222 5.97333 175.395 5.28 175.635 4.64C175.902 4 176.248 3.44 176.675 2.96C177.128 2.48 177.662 2.10667 178.275 1.84C178.888 1.54667 179.622 1.4 180.475 1.4C181.302 1.4 182.022 1.54667 182.635 1.84C183.275 2.10667 183.808 2.48 184.235 2.96C184.688 3.44 185.035 4 185.275 4.64C185.542 5.28 185.728 5.97333 185.835 6.72C186.208 10.5333 186.395 14.4533 186.395 18.48C186.395 22.5067 186.208 26.4267 185.835 30.24C185.728 30.9867 185.542 31.68 185.275 32.32C185.035 32.9867 184.688 33.56 184.235 34.04C183.808 34.52 183.275 34.8933 182.635 35.16C182.022 35.4533 181.302 35.6 180.475 35.6C179.302 35.6 178.342 35.3333 177.595 34.8C176.875 34.2667 176.288 33.5867 175.835 32.76C175.302 31.8533 174.782 30.8 174.275 29.6C173.768 28.4 173.248 27.16 172.715 25.88C172.208 24.6 171.675 23.3333 171.115 22.08C170.555 20.8267 169.982 19.68 169.395 18.64ZM204.949 35.88C202.336 35.88 200.043 35.4133 198.069 34.48C196.096 33.5733 194.443 32.3333 193.109 30.76C191.803 29.1867 190.803 27.3467 190.109 25.24C189.443 23.1067 189.109 20.84 189.109 18.44C189.109 16.04 189.376 13.7867 189.909 11.68C190.443 9.57333 191.336 7.73333 192.589 6.16C193.869 4.56 195.563 3.30667 197.669 2.4C199.803 1.46667 202.456 0.999999 205.629 0.999999C207.469 0.999999 209.123 1.14666 210.589 1.44C212.083 1.73333 213.389 2.18667 214.509 2.8C215.336 3.25333 215.963 3.81333 216.389 4.48C216.816 5.12 217.069 5.81333 217.149 6.56C217.229 7.30667 217.163 8.08 216.949 8.88C216.736 9.65333 216.403 10.3867 215.949 11.08C215.549 11.6933 215.069 12.24 214.509 12.72C213.976 13.2 213.389 13.5733 212.749 13.84C212.109 14.1067 211.429 14.24 210.709 14.24C209.989 14.2133 209.256 14.0133 208.509 13.64C208.163 13.4533 207.749 13.3067 207.269 13.2C206.789 13.0667 206.243 13 205.629 13C204.669 13 203.856 13.1467 203.189 13.44C202.523 13.7333 201.976 14.1333 201.549 14.64C201.149 15.1467 200.843 15.7333 200.629 16.4C200.443 17.04 200.349 17.72 200.349 18.44C200.349 19.16 200.443 19.8533 200.629 20.52C200.816 21.16 201.096 21.7333 201.469 22.24C201.869 22.7467 202.363 23.1467 202.949 23.44C203.563 23.7333 204.269 23.88 205.069 23.88C205.416 23.88 205.776 23.8533 206.149 23.8C206.549 23.72 206.936 23.6267 207.309 23.52C207.683 23.3867 208.029 23.2533 208.349 23.12C208.696 22.9867 208.976 22.84 209.189 22.68C209.669 22.36 210.069 22.0533 210.389 21.76C210.736 21.44 211.056 21.08 211.349 20.68C211.456 20.52 211.496 20.3867 211.469 20.28C211.443 20.1467 211.389 20.0533 211.309 20C211.229 19.9467 211.123 19.9333 210.989 19.96C210.883 19.96 210.776 20.0267 210.669 20.16C210.456 20.48 210.163 20.8267 209.789 21.2C209.443 21.5467 209.043 21.8 208.589 21.96C207.869 22.2267 207.203 22.3467 206.589 22.32C205.976 22.2667 205.429 22.1067 204.949 21.84C204.496 21.5733 204.136 21.2133 203.869 20.76C203.629 20.28 203.509 19.7467 203.509 19.16C203.509 18.1467 203.789 17.3867 204.349 16.88C204.909 16.3467 205.763 16.0133 206.909 15.88C208.349 15.6933 209.803 15.6 211.269 15.6C212.763 15.6 214.216 15.76 215.629 16.08C216.269 16.24 216.856 16.5067 217.389 16.88C217.949 17.2533 218.429 17.7067 218.829 18.24C219.229 18.7467 219.536 19.3333 219.749 20C219.963 20.64 220.069 21.32 220.069 22.04C220.069 23.96 219.736 25.76 219.069 27.44C218.429 29.12 217.469 30.5867 216.189 31.84C214.936 33.0933 213.363 34.08 211.469 34.8C209.603 35.52 207.429 35.88 204.949 35.88Z" fill="#2556F5"/>
</svg>
