<svg width="61" height="32" viewBox="0 0 61 32" fill="none" xmlns="http://www.w3.org/2000/svg">
<path d="M9.82175 14.328C9.82175 14.0933 9.83242 13.8693 9.85375 13.656C9.87508 13.4213 9.90708 13.2187 9.94975 13.048C9.77908 13.0267 9.61908 13.016 9.46975 13.016C9.32042 13.016 9.17108 13.0053 9.02175 12.984C6.97375 12.8347 5.42708 12.5787 4.38175 12.216C3.35775 11.832 2.67508 11.2347 2.33375 10.424C2.16308 10.0187 2.03508 9.58133 1.94975 9.112C1.88575 8.62133 1.85375 8.13067 1.85375 7.64C1.85375 7.14933 1.88575 6.66933 1.94975 6.2C2.03508 5.70933 2.16308 5.25067 2.33375 4.824C2.67508 4.01333 3.25108 3.416 4.06175 3.032C4.87242 2.648 5.94975 2.40267 7.29375 2.296C7.69908 2.27467 8.31775 2.264 9.14975 2.264C10.0031 2.24266 10.9631 2.232 12.0298 2.232C13.0964 2.21067 14.2164 2.2 15.3898 2.2C16.5844 2.17867 17.7151 2.17867 18.7818 2.2C19.8484 2.2 20.7978 2.21067 21.6298 2.232C22.4831 2.232 23.1124 2.24266 23.5178 2.264C24.8618 2.328 25.8858 2.49867 26.5898 2.776C27.3151 3.05333 27.6778 3.50133 27.6778 4.12C27.6778 5.37867 26.2911 6.008 23.5178 6.008H12.4778C12.6271 6.30667 12.7231 6.62667 12.7658 6.968C12.8084 7.288 12.7978 7.58667 12.7338 7.864C12.2644 7.97066 11.8591 8.056 11.5178 8.12C11.1978 8.16267 10.8671 8.248 10.5258 8.376C10.4191 8.41867 10.3444 8.48267 10.3018 8.568C10.2804 8.65333 10.2804 8.73867 10.3018 8.824C10.3444 8.90933 10.4084 8.984 10.4938 9.048C10.5791 9.112 10.6858 9.12267 10.8138 9.08C11.9231 8.84533 13.0751 8.64267 14.2698 8.472C15.4858 8.28 16.6591 8.13067 17.7898 8.024C18.9204 7.896 19.9551 7.8 20.8938 7.736C21.8538 7.672 22.6218 7.64 23.1978 7.64C24.6484 7.64 25.8218 7.81067 26.7178 8.152C27.6351 8.472 28.1791 9.112 28.3498 10.072C28.4564 10.7547 28.2644 11.352 27.7738 11.864C27.2831 12.3547 26.3231 12.6747 24.8938 12.824C24.2111 12.888 23.5071 12.952 22.7818 13.016C22.0564 13.0587 21.3204 13.1013 20.5738 13.144C20.6378 13.5067 20.6698 13.9013 20.6698 14.328C21.6938 14.2853 22.6964 14.2427 23.6778 14.2C24.6804 14.1573 25.6618 14.1147 26.6218 14.072C27.5604 14.008 28.2858 14.1893 28.7978 14.616C29.3311 15.0427 29.5978 15.5547 29.5978 16.152C29.5978 16.8773 29.3311 17.4213 28.7978 17.784C28.2858 18.1467 27.5498 18.36 26.5898 18.424C24.8191 18.552 22.9631 18.648 21.0218 18.712C19.0804 18.776 17.1178 18.808 15.1338 18.808C13.1711 18.808 11.2298 18.776 9.30975 18.712C7.38975 18.648 5.57642 18.552 3.86975 18.424C2.95242 18.3387 2.22708 18.1253 1.69375 17.784C1.18175 17.4213 0.92575 16.8773 0.92575 16.152C0.92575 15.5547 1.18175 15.0427 1.69375 14.616C2.22708 14.1893 2.95242 14.008 3.86975 14.072C4.80842 14.136 5.76842 14.1893 6.74975 14.232C7.75242 14.2533 8.77642 14.2853 9.82175 14.328ZM16.8618 21.208C16.8618 20.7387 17.1071 20.3547 17.5978 20.056C18.0884 19.736 18.6964 19.5013 19.4218 19.352C20.1684 19.1813 20.9791 19.1067 21.8538 19.128C22.7498 19.128 23.5924 19.224 24.3818 19.416C25.1924 19.608 25.8858 19.896 26.4618 20.28C27.0591 20.6427 27.4431 21.1013 27.6138 21.656C27.8911 22.7013 28.0298 23.8 28.0298 24.952C28.0511 26.0827 27.9124 27.1493 27.6138 28.152C27.3791 28.8987 26.8351 29.496 25.9818 29.944C25.1284 30.392 24.0298 30.6693 22.6858 30.776C20.1044 30.9893 17.5764 31.096 15.1018 31.096C12.6271 31.1173 10.1631 31.0107 7.70975 30.776C6.36575 30.6693 5.26708 30.392 4.41375 29.944C3.58175 29.496 3.04842 28.8987 2.81375 28.152C2.49375 27.1493 2.35508 26.0933 2.39775 24.984C2.46175 23.8533 2.60042 22.744 2.81375 21.656C2.89908 21.1013 3.21908 20.6427 3.77375 20.28C4.34975 19.896 5.03242 19.608 5.82175 19.416C6.61108 19.224 7.45375 19.128 8.34975 19.128C9.24575 19.1067 10.0671 19.1813 10.8138 19.352C11.5818 19.5013 12.2111 19.736 12.7018 20.056C13.2138 20.3547 13.4698 20.7387 13.4698 21.208V22.008C14.6431 21.88 15.7738 21.88 16.8618 22.008V21.208ZM17.1178 25.464C16.5417 25.8053 15.8804 25.976 15.1338 25.976C14.4084 25.9547 13.7684 25.7733 13.2138 25.432C13.1071 25.3893 12.9791 25.3893 12.8298 25.432C12.6804 25.4533 12.5631 25.5493 12.4778 25.72C12.3071 25.9973 12.4458 26.264 12.8938 26.52C13.6191 26.8827 14.3871 27.064 15.1978 27.064C16.0084 27.064 16.7764 26.8827 17.5018 26.52C17.6298 26.4347 17.7258 26.3387 17.7898 26.232C17.8538 26.104 17.8644 25.944 17.8218 25.752C17.7791 25.6453 17.6831 25.56 17.5338 25.496C17.4058 25.4107 17.2671 25.4 17.1178 25.464ZM57.476 15.384C57.4547 15.5547 57.4333 15.7147 57.412 15.864C57.412 15.992 57.3907 16.1413 57.348 16.312C57.1987 17.4 56.7613 18.1893 56.036 18.68C55.3107 19.1707 54.3827 19.416 53.252 19.416C51.9507 19.416 50.9267 19.1387 50.18 18.584C49.4333 18.008 49.1453 17.1227 49.316 15.928C49.5507 14.1573 49.668 12.376 49.668 10.584C49.668 8.77067 49.5613 7.032 49.348 5.368C49.156 4.04533 49.4333 3.08533 50.18 2.488C50.9267 1.89067 51.9507 1.592 53.252 1.592C54.3827 1.592 55.3107 1.848 56.036 2.36C56.7613 2.85067 57.1987 3.64 57.348 4.728C57.3907 4.94133 57.412 5.144 57.412 5.336C57.4333 5.528 57.4653 5.73067 57.508 5.944L58.532 5.848C59.2787 5.76267 59.8547 6.104 60.26 6.872C60.6653 7.61867 60.868 8.888 60.868 10.68C60.868 12.408 60.6653 13.6667 60.26 14.456C59.8547 15.224 59.2787 15.5653 58.532 15.48L57.476 15.384ZM39.748 8.504C40.0253 9.31467 40.1 10.0933 39.972 10.84C39.5027 10.9893 39.108 11.128 38.788 11.256C38.468 11.384 38.1373 11.5333 37.796 11.704C37.6893 11.7467 37.6253 11.8213 37.604 11.928C37.5827 12.0133 37.5827 12.0987 37.604 12.184C37.6467 12.2693 37.7107 12.3333 37.796 12.376C37.9027 12.3973 38.02 12.376 38.148 12.312C38.4893 12.1413 38.8307 11.992 39.172 11.864C39.5347 11.7147 39.9187 11.5867 40.324 11.48C40.7293 11.3733 41.1667 11.288 41.636 11.224C42.1053 11.16 42.6387 11.128 43.236 11.128C44.6867 11.128 45.86 11.4053 46.756 11.96C47.6733 12.4933 48.2493 13.272 48.484 14.296C48.74 15.3413 48.5587 16.2053 47.94 16.888C47.3213 17.5707 46.3293 18.072 44.964 18.392C44.0253 18.6053 43.0013 18.744 41.892 18.808C40.804 18.872 39.7053 18.904 38.596 18.904C36.5267 18.904 34.9693 18.5733 33.924 17.912C32.9 17.2293 32.228 16.2587 31.908 15C31.5453 13.6133 31.364 12.1307 31.364 10.552C31.364 8.952 31.5453 7.45867 31.908 6.072C32.228 4.81333 32.7933 3.864 33.604 3.224C34.4147 2.584 35.5027 2.21066 36.868 2.104C38.084 1.99733 39.268 1.93333 40.42 1.912C41.572 1.89067 42.7453 1.93333 43.94 2.04C45.284 2.12533 46.308 2.43467 47.012 2.968C47.7373 3.48 48.1 4.22666 48.1 5.208C48.1 6.232 47.7587 7.04267 47.076 7.64C46.4147 8.216 45.3693 8.504 43.94 8.504H39.748ZM32.132 25.752C32.132 24.7707 32.3773 23.896 32.868 23.128C33.3587 22.36 34.1267 21.72 35.172 21.208C36.2387 20.6747 37.5827 20.2693 39.204 19.992C40.8253 19.7147 42.7773 19.576 45.06 19.576C47.3213 19.576 49.2627 19.7147 50.884 19.992C52.5267 20.2693 53.8707 20.6747 54.916 21.208C55.9613 21.72 56.7293 22.36 57.22 23.128C57.732 23.896 57.988 24.7707 57.988 25.752C57.988 26.7547 57.764 27.5867 57.316 28.248C56.8893 28.9307 56.1747 29.464 55.172 29.848C54.1693 30.2533 52.836 30.5413 51.172 30.712C49.5293 30.8827 47.492 30.968 45.06 30.968C42.628 30.968 40.58 30.8827 38.916 30.712C37.2733 30.5413 35.94 30.2533 34.916 29.848C33.9133 29.464 33.1987 28.9307 32.772 28.248C32.3453 27.5867 32.132 26.7547 32.132 25.752ZM42.724 25.912C43.4707 26.296 44.2387 26.488 45.028 26.488C45.8387 26.488 46.6173 26.296 47.364 25.912C47.4707 25.848 47.5667 25.752 47.652 25.624C47.7373 25.4747 47.748 25.3147 47.684 25.144C47.6413 25.016 47.5453 24.9093 47.396 24.824C47.2467 24.7387 47.108 24.7387 46.98 24.824C46.3827 25.144 45.7213 25.304 44.996 25.304C44.292 25.2827 43.6627 25.112 43.108 24.792C43.0013 24.728 42.8627 24.7173 42.692 24.76C42.5427 24.8027 42.4253 24.9093 42.34 25.08C42.1907 25.4 42.3187 25.6773 42.724 25.912Z" fill="#3270FF"/>
</svg>
