<svg width="180" height="36" viewBox="0 0 180 36" fill="none" xmlns="http://www.w3.org/2000/svg">
<path d="M16.448 25.76C16.5813 25.8933 16.768 25.9067 17.008 25.8C17.248 25.6933 17.3146 25.5067 17.208 25.24C16.8346 24.4133 16.3546 23.56 15.768 22.68C15.1813 21.8 14.5013 20.9867 13.728 20.24C12.9546 19.4667 12.088 18.8133 11.128 18.28C10.1946 17.7467 9.1813 17.4 8.08797 17.24C5.79464 16.8667 3.9813 16.0667 2.64797 14.84C1.31464 13.5867 0.647969 11.7867 0.647969 9.44C0.647969 8.16 0.967969 7 1.60797 5.96C2.27464 4.92 3.1813 4.04 4.32797 3.32C5.47464 2.57333 6.83464 2 8.40797 1.6C9.9813 1.2 11.688 0.999999 13.528 0.999999C14.9146 0.999999 16.408 1.14666 18.008 1.44C19.608 1.70667 21.0746 2.16 22.408 2.8C23.7413 3.44 24.8346 4.28 25.688 5.32C26.5413 6.36 26.9146 7.64 26.808 9.16C26.7546 10.1467 26.5413 10.9867 26.168 11.68C25.8213 12.3467 25.368 12.8933 24.808 13.32C24.248 13.72 23.6213 14.0133 22.928 14.2C22.2346 14.3867 21.528 14.48 20.808 14.48C19.7146 14.48 18.728 14.2267 17.848 13.72C16.9946 13.2133 16.168 12.6133 15.368 11.92C14.9413 11.5467 14.5413 11.2 14.168 10.88C13.7946 10.56 13.4213 10.24 13.048 9.92C12.7013 9.6 12.328 9.26667 11.928 8.92C11.5546 8.57333 11.1546 8.18667 10.728 7.76C10.568 7.6 10.4213 7.52 10.288 7.52C10.1546 7.52 10.0346 7.57333 9.92797 7.68C9.84797 7.76 9.80797 7.86667 9.80797 8C9.80797 8.13333 9.87464 8.26667 10.008 8.4C10.5146 8.96 11.1013 9.58667 11.768 10.28C12.4346 10.9467 13.2213 11.64 14.128 12.36C15.0346 13.08 16.0746 13.8 17.248 14.52C18.4213 15.24 19.768 15.9067 21.288 16.52C22.168 16.8933 23.0213 17.3733 23.848 17.96C24.7013 18.52 25.4346 19.2133 26.048 20.04C26.6613 20.8667 27.128 21.8267 27.448 22.92C27.7946 24.0133 27.9146 25.2533 27.808 26.64C27.7013 28.1067 27.2613 29.4133 26.488 30.56C25.7413 31.7067 24.7546 32.6667 23.528 33.44C22.3013 34.24 20.888 34.84 19.288 35.24C17.7146 35.6667 16.048 35.88 14.288 35.88C12.4746 35.88 10.768 35.6667 9.16797 35.24C7.59464 34.84 6.19464 34.24 4.96797 33.44C3.76797 32.64 2.76797 31.6533 1.96797 30.48C1.19464 29.3067 0.687969 27.96 0.447969 26.44C0.287969 25.3733 0.261302 24.3333 0.367969 23.32C0.501302 22.3067 0.794635 21.4 1.24797 20.6C1.72797 19.8 2.39464 19.16 3.24797 18.68C4.1013 18.2 5.19464 17.96 6.52797 17.96C7.7813 17.96 8.9013 18.2 9.88797 18.68C10.9013 19.1333 11.808 19.7333 12.608 20.48C13.408 21.2 14.1146 22.0267 14.728 22.96C15.3413 23.8933 15.9146 24.8267 16.448 25.76ZM31.1317 30.24C30.7317 26.4267 30.5317 22.5067 30.5317 18.48C30.5317 14.4533 30.7317 10.5333 31.1317 6.72C31.2117 5.97333 31.3717 5.28 31.6117 4.64C31.8517 4 32.1851 3.44 32.6117 2.96C33.0651 2.48 33.5984 2.10667 34.2117 1.84C34.8517 1.54667 35.5984 1.4 36.4517 1.4C37.2784 1.4 37.9984 1.54667 38.6117 1.84C39.2517 2.10667 39.7851 2.48 40.2117 2.96C40.6651 3.44 41.0117 4 41.2517 4.64C41.4917 5.28 41.6517 5.97333 41.7317 6.72C42.1317 10.5333 42.3317 14.4533 42.3317 18.48C42.3317 22.5067 42.1317 26.4267 41.7317 30.24C41.6517 30.9867 41.4917 31.68 41.2517 32.32C41.0117 32.9867 40.6651 33.56 40.2117 34.04C39.7851 34.52 39.2517 34.8933 38.6117 35.16C37.9984 35.4533 37.2784 35.6 36.4517 35.6C35.5984 35.6 34.8517 35.4533 34.2117 35.16C33.5984 34.8933 33.0651 34.52 32.6117 34.04C32.1851 33.56 31.8517 32.9867 31.6117 32.32C31.3717 31.68 31.2117 30.9867 31.1317 30.24ZM60.8555 35.88C58.2421 35.88 55.9488 35.4133 53.9755 34.48C52.0021 33.5733 50.3488 32.3333 49.0155 30.76C47.7088 29.1867 46.7088 27.3467 46.0155 25.24C45.3488 23.1067 45.0155 20.84 45.0155 18.44C45.0155 16.04 45.2821 13.7867 45.8155 11.68C46.3488 9.57333 47.2421 7.73333 48.4955 6.16C49.7755 4.56 51.4688 3.30667 53.5755 2.4C55.7088 1.46667 58.3621 0.999999 61.5355 0.999999C63.3755 0.999999 65.0288 1.14666 66.4955 1.44C67.9888 1.73333 69.2955 2.18667 70.4155 2.8C71.2421 3.25333 71.8688 3.81333 72.2955 4.48C72.7221 5.12 72.9755 5.81333 73.0555 6.56C73.1355 7.30667 73.0688 8.08 72.8555 8.88C72.6421 9.65333 72.3088 10.3867 71.8555 11.08C71.4555 11.6933 70.9755 12.24 70.4155 12.72C69.8821 13.2 69.2955 13.5733 68.6555 13.84C68.0155 14.1067 67.3355 14.24 66.6155 14.24C65.8955 14.2133 65.1621 14.0133 64.4155 13.64C64.0688 13.4533 63.6555 13.3067 63.1755 13.2C62.6955 13.0667 62.1488 13 61.5355 13C60.5755 13 59.7621 13.1467 59.0955 13.44C58.4288 13.7333 57.8821 14.1333 57.4555 14.64C57.0555 15.1467 56.7488 15.7333 56.5355 16.4C56.3488 17.04 56.2555 17.72 56.2555 18.44C56.2555 19.16 56.3488 19.8533 56.5355 20.52C56.7221 21.16 57.0021 21.7333 57.3755 22.24C57.7755 22.7467 58.2688 23.1467 58.8555 23.44C59.4688 23.7333 60.1755 23.88 60.9755 23.88C61.3221 23.88 61.6821 23.8533 62.0555 23.8C62.4555 23.72 62.8421 23.6267 63.2155 23.52C63.5888 23.3867 63.9355 23.2533 64.2555 23.12C64.6021 22.9867 64.8821 22.84 65.0955 22.68C65.5755 22.36 65.9755 22.0533 66.2955 21.76C66.6421 21.44 66.9621 21.08 67.2555 20.68C67.3621 20.52 67.4021 20.3867 67.3755 20.28C67.3488 20.1467 67.2955 20.0533 67.2155 20C67.1355 19.9467 67.0288 19.9333 66.8955 19.96C66.7888 19.96 66.6821 20.0267 66.5755 20.16C66.3621 20.48 66.0688 20.8267 65.6955 21.2C65.3488 21.5467 64.9488 21.8 64.4955 21.96C63.7755 22.2267 63.1088 22.3467 62.4955 22.32C61.8821 22.2667 61.3355 22.1067 60.8555 21.84C60.4021 21.5733 60.0421 21.2133 59.7755 20.76C59.5355 20.28 59.4155 19.7467 59.4155 19.16C59.4155 18.1467 59.6955 17.3867 60.2555 16.88C60.8155 16.3467 61.6688 16.0133 62.8155 15.88C64.2555 15.6933 65.7088 15.6 67.1755 15.6C68.6688 15.6 70.1221 15.76 71.5355 16.08C72.1755 16.24 72.7621 16.5067 73.2955 16.88C73.8555 17.2533 74.3355 17.7067 74.7355 18.24C75.1355 18.7467 75.4421 19.3333 75.6555 20C75.8688 20.64 75.9755 21.32 75.9755 22.04C75.9755 23.96 75.6421 25.76 74.9755 27.44C74.3355 29.12 73.3755 30.5867 72.0955 31.84C70.8421 33.0933 69.2688 34.08 67.3755 34.8C65.5088 35.52 63.3355 35.88 60.8555 35.88ZM90.4186 18.64C90.4186 19.52 90.3919 20.4667 90.3386 21.48C90.3119 22.4667 90.2719 23.4667 90.2186 24.48C90.1653 25.4933 90.0986 26.4933 90.0186 27.48C89.9386 28.4667 89.8586 29.3867 89.7786 30.24C89.6986 30.9867 89.5386 31.68 89.2986 32.32C89.0586 32.9867 88.7119 33.56 88.2586 34.04C87.8319 34.52 87.2986 34.8933 86.6586 35.16C86.0453 35.4533 85.3253 35.6 84.4986 35.6C83.6453 35.6 82.8986 35.4533 82.2586 35.16C81.6453 34.8933 81.1119 34.52 80.6586 34.04C80.2319 33.56 79.8986 32.9867 79.6586 32.32C79.4186 31.68 79.2586 30.9867 79.1786 30.24C78.7786 26.4267 78.5786 22.5067 78.5786 18.48C78.5786 14.4533 78.7786 10.5333 79.1786 6.72C79.2586 5.97333 79.4186 5.28 79.6586 4.64C79.8986 4 80.2319 3.44 80.6586 2.96C81.1119 2.48 81.6453 2.10667 82.2586 1.84C82.8986 1.54667 83.6453 1.4 84.4986 1.4C85.4586 1.4 86.2719 1.57333 86.9386 1.92C87.6319 2.26667 88.2053 2.74667 88.6586 3.36C89.5653 4.53333 90.3653 5.78666 91.0586 7.12C91.7786 8.42667 92.4719 9.77333 93.1386 11.16C93.8053 12.52 94.4586 13.8933 95.0986 15.28C95.7653 16.6667 96.4853 18 97.2586 19.28C97.3386 19.44 97.4319 19.5467 97.5386 19.6C97.6719 19.6533 97.7786 19.6533 97.8586 19.6C97.9653 19.52 98.0319 19.4133 98.0586 19.28C98.1119 19.1467 98.0853 18.9867 97.9786 18.8C97.5519 17.9467 97.1653 17.2 96.8186 16.56C96.4719 15.8933 96.0853 15.1733 95.6586 14.4C95.7119 13.0667 95.7786 11.7333 95.8586 10.4C95.9386 9.04 96.0319 7.81333 96.1386 6.72C96.2453 5.97333 96.4186 5.28 96.6586 4.64C96.9253 4 97.2719 3.44 97.6986 2.96C98.1519 2.48 98.6853 2.10667 99.2986 1.84C99.9119 1.54667 100.645 1.4 101.499 1.4C102.325 1.4 103.045 1.54667 103.659 1.84C104.299 2.10667 104.832 2.48 105.259 2.96C105.712 3.44 106.059 4 106.299 4.64C106.565 5.28 106.752 5.97333 106.859 6.72C107.232 10.5333 107.419 14.4533 107.419 18.48C107.419 22.5067 107.232 26.4267 106.859 30.24C106.752 30.9867 106.565 31.68 106.299 32.32C106.059 32.9867 105.712 33.56 105.259 34.04C104.832 34.52 104.299 34.8933 103.659 35.16C103.045 35.4533 102.325 35.6 101.499 35.6C100.325 35.6 99.3653 35.3333 98.6186 34.8C97.8986 34.2667 97.3119 33.5867 96.8586 32.76C96.3253 31.8533 95.8053 30.8 95.2986 29.6C94.7919 28.4 94.2719 27.16 93.7386 25.88C93.2319 24.6 92.6986 23.3333 92.1386 22.08C91.5786 20.8267 91.0053 19.68 90.4186 18.64ZM134.031 35.92C131.205 35.92 128.858 35.48 126.991 34.6C125.151 33.72 123.685 32.5067 122.591 30.96C121.525 29.4133 120.778 27.6133 120.351 25.56C119.925 23.48 119.711 21.24 119.711 18.84C119.711 16.76 119.725 14.6667 119.751 12.56C119.805 10.4267 119.871 8.36 119.951 6.36C120.058 4.84 120.618 3.64 121.631 2.76C122.645 1.85333 123.925 1.4 125.471 1.4C127.018 1.4 128.298 1.85333 129.311 2.76C130.351 3.64 130.911 4.84 130.991 6.36C131.098 8.36 131.165 10.4267 131.191 12.56C131.245 14.6667 131.271 16.76 131.271 18.84C131.271 19.4267 131.298 19.9733 131.351 20.48C131.431 20.9867 131.565 21.44 131.751 21.84C131.938 22.2133 132.205 22.5067 132.551 22.72C132.925 22.9333 133.418 23.04 134.031 23.04C134.618 23.04 135.098 22.9333 135.471 22.72C135.845 22.5067 136.125 22.2133 136.311 21.84C136.498 21.44 136.618 20.9867 136.671 20.48C136.751 19.9733 136.791 19.4267 136.791 18.84C136.791 16.76 136.805 14.6667 136.831 12.56C136.885 10.4267 136.965 8.36 137.071 6.36C137.098 5.61333 137.258 4.93333 137.551 4.32C137.845 3.70667 138.231 3.18667 138.711 2.76C139.191 2.30667 139.751 1.97333 140.391 1.76C141.058 1.52 141.778 1.4 142.551 1.4C143.325 1.4 144.045 1.52 144.711 1.76C145.378 1.97333 145.951 2.30667 146.431 2.76C146.938 3.18667 147.338 3.70667 147.631 4.32C147.925 4.93333 148.085 5.61333 148.111 6.36C148.218 8.36 148.285 10.4267 148.311 12.56C148.365 14.6667 148.391 16.76 148.391 18.84C148.391 21.24 148.165 23.48 147.711 25.56C147.285 27.6133 146.525 29.4133 145.431 30.96C144.365 32.5067 142.898 33.72 141.031 34.6C139.191 35.48 136.858 35.92 134.031 35.92ZM163.07 24.28C163.017 25.2667 162.95 26.2533 162.87 27.24C162.79 28.2267 162.71 29.2133 162.63 30.2C162.55 30.9467 162.39 31.64 162.15 32.28C161.91 32.9467 161.563 33.52 161.11 34C160.683 34.48 160.15 34.8533 159.51 35.12C158.897 35.4133 158.177 35.56 157.35 35.56C156.497 35.56 155.75 35.4133 155.11 35.12C154.497 34.8533 153.963 34.48 153.51 34C153.083 33.52 152.75 32.9467 152.51 32.28C152.27 31.64 152.11 30.9467 152.03 30.2C151.63 26.3867 151.43 22.5067 151.43 18.56C151.457 14.6133 151.657 10.7333 152.03 6.92C152.137 5.96 152.363 5.14667 152.71 4.48C153.057 3.81333 153.497 3.26666 154.03 2.84C154.563 2.41333 155.163 2.09333 155.83 1.88C156.523 1.64 157.257 1.46667 158.03 1.36C158.963 1.25333 159.91 1.17333 160.87 1.12C161.857 1.04 162.817 0.999999 163.75 0.999999C165.617 0.973332 167.457 1.08 169.27 1.32C171.11 1.56 172.75 2.08 174.19 2.88C175.657 3.68 176.83 4.85333 177.71 6.4C178.617 7.94667 179.07 10.0133 179.07 12.6C179.07 14.4133 178.857 15.96 178.43 17.24C178.03 18.52 177.457 19.6 176.71 20.48C175.99 21.3333 175.123 22.0267 174.11 22.56C173.123 23.0667 172.03 23.4533 170.83 23.72C169.657 23.9867 168.403 24.16 167.07 24.24C165.763 24.2933 164.43 24.3067 163.07 24.28ZM163.07 13.44C164.723 14.2933 166.497 14.6267 168.39 14.44C168.63 14.4133 168.79 14.32 168.87 14.16C168.977 14 169.03 13.84 169.03 13.68C169.03 13.4933 168.977 13.3333 168.87 13.2C168.79 13.0667 168.67 13 168.51 13C167.523 13.0533 166.643 13 165.87 12.84C165.097 12.68 164.283 12.4133 163.43 12.04C163.27 11.96 163.123 11.9733 162.99 12.08C162.857 12.16 162.75 12.28 162.67 12.44C162.617 12.6 162.617 12.7867 162.67 13C162.723 13.1867 162.857 13.3333 163.07 13.44Z" fill="#2556F5"/>
</svg>
